<svg width="432" height="551" viewBox="0 0 432 551" fill="none" xmlns="http://www.w3.org/2000/svg">
<g clip-path="url(#clip0_188_210)">
<path d="M305.645 152.359C305.645 155.493 305.542 158.602 305.335 161.684C304.176 179.461 299.606 196.861 291.866 212.969C291.806 213.106 291.735 213.234 291.676 213.362C291.315 214.109 290.945 214.856 290.565 215.592C288.263 220.148 285.709 224.577 282.915 228.858C270.152 248.514 252.659 264.777 231.981 276.212C211.303 287.647 188.077 293.901 164.355 294.421L165.785 375.234L184.435 365.585L187.765 371.805L165.926 383.105L168.596 533.196L168.625 535.2L154.205 536.389L154.235 536.34L158.775 294.431C139.682 294.161 120.833 290.168 103.323 282.681C85.8128 275.195 69.9908 264.365 56.7752 250.821C55.8655 249.897 54.9651 248.944 54.0852 248C54.0452 247.961 54.0154 247.922 53.9851 247.892C42.9742 236.093 34.0692 222.552 27.6453 207.839C27.7854 207.997 27.9353 208.144 28.0755 208.301C13.5573 174.94 12.5726 137.386 25.3233 103.334C38.0739 69.2829 63.5944 41.3123 96.6551 25.1544C97.1551 24.9088 97.6653 24.6729 98.1653 24.4272C130.868 8.94833 168.296 6.10816 203.03 16.4697C237.764 26.8312 267.268 49.6381 285.695 80.3697C286.575 81.824 287.426 83.3078 288.245 84.8014C299.692 105.541 305.674 128.766 305.645 152.359Z" fill="#F0C991"/>
<path d="M199.175 536.72C222.96 536.72 242.242 517.772 242.242 494.399C242.242 471.027 222.96 452.079 199.175 452.079C175.39 452.079 156.108 471.027 156.108 494.399C156.108 517.772 175.39 536.72 199.175 536.72Z" fill="#2F2E41"/>
<path d="M250.076 523.49H211.493V536.347H250.076V523.49Z" fill="#2F2E41"/>
<path d="M250.349 536.347C252.607 536.347 254.438 531.55 254.438 525.633C254.438 519.716 252.607 514.919 250.349 514.919C248.091 514.919 246.26 519.716 246.26 525.633C246.26 531.55 248.091 536.347 250.349 536.347Z" fill="#2F2E41"/>
<path d="M241.076 522.508H202.493V535.365H241.076V522.508Z" fill="#2F2E41"/>
<path d="M241.349 535.365C243.607 535.365 245.438 530.568 245.438 524.651C245.438 518.733 243.607 513.937 241.349 513.937C239.091 513.937 237.26 518.733 237.26 524.651C237.26 530.568 239.091 535.365 241.349 535.365Z" fill="#2F2E41"/>
<path d="M157.398 455.043C153.921 439.739 165.037 424.276 182.227 420.504C199.417 416.732 216.171 426.081 219.648 441.384C223.126 456.688 211.734 462.332 194.544 466.104C177.354 469.875 160.876 470.347 157.398 455.043Z" fill="#999999"/>
<path d="M215.728 491.989C213.475 492.034 211.265 491.383 209.41 490.127C207.555 488.871 206.148 487.074 205.388 484.99C205.346 484.868 205.329 484.738 205.338 484.61C205.347 484.481 205.382 484.355 205.44 484.24C205.499 484.124 205.58 484.021 205.679 483.936C205.778 483.851 205.893 483.787 206.017 483.746C206.142 483.704 206.273 483.688 206.404 483.697C206.535 483.706 206.663 483.74 206.781 483.797C206.899 483.855 207.003 483.934 207.09 484.032C207.176 484.129 207.242 484.242 207.284 484.364C208.798 488.794 213.982 491.11 218.838 489.527C221.25 488.755 223.253 487.078 224.411 484.861C224.908 483.907 225.207 482.864 225.29 481.795C225.373 480.726 225.24 479.651 224.896 478.633C224.854 478.511 224.838 478.382 224.847 478.253C224.856 478.124 224.89 477.999 224.949 477.883C225.007 477.768 225.088 477.664 225.187 477.58C225.286 477.495 225.401 477.43 225.526 477.389C225.65 477.348 225.782 477.331 225.913 477.34C226.044 477.349 226.172 477.383 226.289 477.441C226.407 477.498 226.512 477.578 226.598 477.675C226.685 477.772 226.75 477.885 226.792 478.008C227.22 479.271 227.388 480.605 227.286 481.932C227.185 483.259 226.815 484.554 226.2 485.739C224.803 488.423 222.383 490.455 219.468 491.392C218.262 491.787 216.999 491.988 215.728 491.989Z" fill="white"/>
<path d="M234.912 497.741C236.068 499.962 236.278 502.543 235.498 504.917C234.717 507.291 233.008 509.263 230.748 510.399C228.487 511.534 225.861 511.742 223.445 510.974C221.029 510.207 219.023 508.528 217.867 506.307L217.858 506.29C215.455 501.663 218.775 498.791 223.485 496.43C228.194 494.069 232.509 493.113 234.912 497.741Z" fill="white"/>
<path d="M388.623 537.101H7.6228C7.35759 537.101 7.10322 536.998 6.91568 536.813C6.72814 536.629 6.6228 536.379 6.6228 536.118C6.6228 535.858 6.72814 535.608 6.91568 535.424C7.10322 535.239 7.35759 535.136 7.6228 535.136H388.623C388.888 535.136 389.142 535.239 389.33 535.424C389.517 535.608 389.623 535.858 389.623 536.118C389.623 536.379 389.517 536.629 389.33 536.813C389.142 536.998 388.888 537.101 388.623 537.101Z" fill="#706F81"/>
<path d="M189.54 550.424C193.551 549.408 194.131 538.405 190.836 525.85C187.541 513.294 181.618 503.94 177.607 504.956C173.595 505.973 173.015 516.975 176.31 529.531C179.606 542.087 185.529 551.441 189.54 550.424Z" fill="#2F2E41"/>
<path d="M261.856 443.95H245.47C245.314 443.95 245.162 443.904 245.033 443.817C244.904 443.73 244.805 443.607 244.749 443.464C244.693 443.321 244.682 443.164 244.718 443.015C244.755 442.866 244.836 442.731 244.952 442.628L259.852 429.367H246.085C245.88 429.367 245.683 429.287 245.538 429.145C245.393 429.002 245.312 428.809 245.312 428.608C245.312 428.407 245.393 428.213 245.538 428.071C245.683 427.929 245.88 427.849 246.085 427.849H261.856C262.012 427.849 262.165 427.895 262.293 427.982C262.422 428.069 262.521 428.192 262.577 428.335C262.633 428.478 262.644 428.634 262.608 428.784C262.572 428.933 262.491 429.068 262.375 429.171L247.475 442.431H261.856C262.061 442.431 262.257 442.511 262.402 442.654C262.547 442.796 262.629 442.989 262.629 443.191C262.629 443.392 262.547 443.585 262.402 443.728C262.257 443.87 262.061 443.95 261.856 443.95Z" fill="#CBCBCB"/>
<path d="M282.72 420.41H266.334C266.178 420.41 266.026 420.364 265.897 420.277C265.768 420.19 265.669 420.067 265.613 419.924C265.557 419.781 265.546 419.624 265.582 419.475C265.619 419.326 265.7 419.191 265.816 419.088L280.716 405.827H266.949C266.744 405.827 266.547 405.747 266.402 405.605C266.257 405.462 266.176 405.269 266.176 405.068C266.176 404.867 266.257 404.673 266.402 404.531C266.547 404.389 266.744 404.309 266.949 404.309H282.72C282.876 404.309 283.029 404.355 283.157 404.442C283.286 404.529 283.385 404.652 283.441 404.795C283.497 404.938 283.508 405.094 283.472 405.244C283.436 405.393 283.354 405.528 283.239 405.631L268.339 418.891H282.72C282.925 418.891 283.122 418.971 283.266 419.114C283.411 419.256 283.493 419.449 283.493 419.651C283.493 419.852 283.411 420.045 283.266 420.188C283.122 420.33 282.925 420.41 282.72 420.41Z" fill="#CBCBCB"/>
<path d="M273.447 394.593H257.061C256.905 394.593 256.753 394.546 256.624 394.459C256.495 394.373 256.396 394.25 256.34 394.106C256.284 393.963 256.273 393.807 256.31 393.658C256.346 393.508 256.427 393.373 256.543 393.27L271.443 380.01H257.676C257.471 380.01 257.274 379.93 257.129 379.787C256.985 379.645 256.903 379.452 256.903 379.251C256.903 379.049 256.985 378.856 257.129 378.714C257.274 378.571 257.471 378.491 257.676 378.491H273.447C273.603 378.491 273.756 378.538 273.884 378.624C274.013 378.711 274.112 378.834 274.168 378.977C274.224 379.12 274.235 379.277 274.199 379.426C274.163 379.575 274.082 379.71 273.966 379.813L259.066 393.074H273.447C273.652 393.074 273.849 393.154 273.993 393.296C274.138 393.439 274.22 393.632 274.22 393.833C274.22 394.035 274.138 394.228 273.993 394.37C273.849 394.513 273.652 394.593 273.447 394.593Z" fill="#CBCBCB"/>
<path d="M387.009 174.799L399.804 164.743C389.864 163.666 385.78 168.993 384.109 173.209C376.344 170.04 367.89 174.193 367.89 174.193L393.49 183.325C392.199 179.936 389.951 176.978 387.009 174.799Z" fill="white"/>
<path d="M20.0094 10.6968L32.8042 0.640828C22.8644 -0.436768 18.7804 4.89009 17.1089 9.10637C9.34363 5.93785 0.890137 10.0904 0.890137 10.0904L26.4902 19.2229C25.1988 15.8332 22.9506 12.8756 20.0094 10.6968Z" fill="white"/>
<path d="M419.009 45.0893L431.804 35.0334C421.864 33.9558 417.78 39.2827 416.109 43.4989C408.344 40.3304 399.89 44.483 399.89 44.483L425.49 53.6155C424.199 50.2258 421.951 47.2681 419.009 45.0893Z" fill="white"/>
</g>
<defs>
<clipPath id="clip0_188_210">
<rect width="430.914" height="550" fill="white" transform="translate(0.890137 0.5)"/>
</clipPath>
</defs>
</svg>
