<svg width="73" height="387" viewBox="0 0 73 387" fill="none" xmlns="http://www.w3.org/2000/svg">
<path d="M35.0326 386.135C36.2116 386.853 37.7498 386.48 38.4683 385.301L50.1766 366.087C50.8951 364.908 50.5218 363.37 49.3427 362.651C48.1637 361.933 46.6254 362.306 45.9069 363.485L35.4995 380.564L18.4207 370.157C17.2417 369.438 15.7034 369.812 14.9849 370.991C14.2665 372.17 14.6398 373.708 15.8189 374.427L35.0326 386.135ZM36.3335 0.999999C33.9314 1.6929 33.9317 1.69369 33.9322 1.69547C33.9327 1.69738 33.9335 1.70015 33.9346 1.70396C33.9368 1.71159 33.9401 1.72315 33.9446 1.7386C33.9535 1.7695 33.9668 1.81597 33.9846 1.87772C34.02 2.00123 34.0729 2.18584 34.1424 2.42924C34.2813 2.91604 34.4867 3.63793 34.7514 4.57622C35.2811 6.45283 36.0486 9.19491 36.9991 12.6529C38.9002 19.5691 41.533 29.3473 44.4583 40.791C50.3117 63.6893 57.325 93.2122 61.9963 119.807C64.3325 133.108 66.0745 145.63 66.7985 156.2C67.5287 166.862 67.1964 175.227 65.5872 180.398C64.7831 182.981 63.774 184.39 62.7945 185.045C61.9471 185.611 60.725 185.876 58.6913 185.165C56.5778 184.427 53.8267 182.698 50.3629 179.59C46.926 176.505 42.9174 172.182 38.2795 166.431L34.3874 169.569C39.1246 175.443 43.3191 179.987 47.0234 183.311C50.7008 186.611 54.0288 188.833 57.0423 189.886C60.1356 190.966 63.0883 190.863 65.5734 189.201C67.9264 187.628 69.4076 184.948 70.3613 181.883C72.2678 175.757 72.5214 166.583 71.7868 155.858C71.046 145.042 69.2723 132.329 66.9209 118.943C62.2172 92.1628 55.168 62.4982 49.3025 39.5527C46.3684 28.0746 43.7277 18.2669 41.8203 11.3276C40.8665 7.85782 40.0959 5.10478 39.5635 3.21821C39.2973 2.27491 39.0906 1.54819 38.9503 1.05678C38.8802 0.81107 38.8266 0.624183 38.7906 0.498457C38.7725 0.435594 38.7588 0.38802 38.7496 0.356029C38.745 0.340034 38.7416 0.327933 38.7392 0.319765C38.738 0.315682 38.7371 0.312513 38.7365 0.310467C38.7359 0.308287 38.7356 0.307094 36.3335 0.999999ZM38.2795 166.431C33.5311 160.543 29.2998 156.148 25.5319 153.145C21.8041 150.174 18.2975 148.378 15.0193 148.09C11.5331 147.783 8.66955 149.21 6.54409 151.821C4.51955 154.308 3.16535 157.846 2.25171 161.976C0.417293 170.267 0.142957 181.997 0.877954 195.609C1.61581 209.274 3.38409 225.033 5.73345 241.479C10.4326 274.372 17.4771 310.154 23.3414 337.693C26.2745 351.466 28.9143 363.187 30.8211 371.465C31.7745 375.605 32.5448 378.884 33.0769 381.129C33.3429 382.252 33.5495 383.116 33.6896 383.7C33.7597 383.992 33.8132 384.214 33.8492 384.363C33.8672 384.438 33.8808 384.494 33.89 384.532C33.8946 384.551 33.8981 384.565 33.9004 384.575C33.9016 384.58 33.9025 384.583 33.9031 384.586C33.9037 384.588 33.904 384.59 36.3335 384C38.7629 383.41 38.7627 383.409 38.7622 383.407C38.7616 383.405 38.7608 383.402 38.7597 383.397C38.7575 383.388 38.7541 383.374 38.7497 383.356C38.7408 383.319 38.7274 383.263 38.7096 383.19C38.6741 383.043 38.6211 382.823 38.5516 382.533C38.4125 381.953 38.2071 381.094 37.9421 379.976C37.4122 377.74 36.6444 374.471 35.6935 370.343C33.7917 362.086 31.158 350.393 28.2317 336.651C22.3772 309.159 15.3591 273.503 10.6832 240.771C8.34504 224.404 6.59768 208.804 5.87068 195.34C5.14083 181.823 5.45243 170.655 7.13366 163.056C7.97784 159.24 9.11388 156.584 10.4219 154.977C11.629 153.494 12.9402 152.926 14.581 153.07C16.4298 153.233 19.0024 154.335 22.4157 157.055C25.7889 159.743 29.7608 163.832 34.3874 169.569L38.2795 166.431Z" fill="#8AAFBC"/>
</svg>
