<svg width="109" height="47" viewBox="0 0 109 47" fill="none" xmlns="http://www.w3.org/2000/svg">
<path d="M68.433 41.13C67.705 41.13 67.0723 41 66.535 40.74C65.9977 40.48 65.5817 40.0943 65.287 39.583C64.9923 39.0717 64.845 38.4433 64.845 37.698V35.215C64.845 34.4697 64.9923 33.8413 65.287 33.33C65.5817 32.8187 65.9977 32.433 66.535 32.173C67.0723 31.9043 67.705 31.77 68.433 31.77C69.161 31.77 69.7937 31.9043 70.331 32.173C70.8683 32.433 71.2843 32.8187 71.579 33.33C71.8737 33.8327 72.021 34.4567 72.021 35.202V37.698C72.021 38.4433 71.8737 39.0717 71.579 39.583C71.2843 40.0943 70.8683 40.48 70.331 40.74C69.7937 41 69.161 41.13 68.433 41.13ZM68.433 33.135C67.7657 33.135 67.2673 33.33 66.938 33.72C66.6087 34.1013 66.444 34.617 66.444 35.267V37.659C66.444 38.2917 66.6087 38.803 66.938 39.193C67.2673 39.5743 67.7657 39.765 68.433 39.765C69.1003 39.765 69.5987 39.5743 69.928 39.193C70.2573 38.803 70.422 38.2873 70.422 37.646V35.254C70.422 34.6127 70.2573 34.1013 69.928 33.72C69.5987 33.33 69.1003 33.135 68.433 33.135ZM76.8263 39.765C77.277 39.765 77.6107 39.6177 77.8273 39.323C78.044 39.0283 78.1523 38.6383 78.1523 38.153V37.386C78.1523 36.892 78.044 36.4977 77.8273 36.203C77.6107 35.9083 77.264 35.761 76.7873 35.761C76.3627 35.761 76.0247 35.8997 75.7733 36.177C75.5307 36.4457 75.4093 36.8487 75.4093 37.386V38.179C75.4093 38.6643 75.535 39.05 75.7863 39.336C76.0463 39.622 76.393 39.765 76.8263 39.765ZM77.2813 41.13C76.822 41.13 76.4363 41.039 76.1243 40.857C75.821 40.6663 75.5827 40.402 75.4093 40.064V43.6H73.8493V34.526H75.4093V35.475C75.5827 35.111 75.8297 34.8423 76.1503 34.669C76.471 34.487 76.848 34.396 77.2813 34.396C77.7493 34.396 78.1697 34.5087 78.5423 34.734C78.915 34.9507 79.2097 35.2757 79.4263 35.709C79.6517 36.1423 79.7643 36.6753 79.7643 37.308V38.218C79.7643 38.8507 79.6517 39.3837 79.4263 39.817C79.2097 40.2503 78.915 40.5797 78.5423 40.805C78.1697 41.0217 77.7493 41.13 77.2813 41.13ZM85.096 39.752V41.065H83.952C83.1546 41.065 82.574 40.883 82.21 40.519C81.846 40.155 81.664 39.5613 81.664 38.738V35.852H80.702V34.526H81.664V32.654H83.237V34.526H85.096V35.852H83.237V38.738C83.237 39.0413 83.3106 39.2883 83.458 39.479C83.6053 39.661 83.8783 39.752 84.277 39.752H85.096ZM87.3754 33.447C87.0808 33.447 86.8424 33.3647 86.6604 33.2C86.4784 33.0353 86.3874 32.823 86.3874 32.563C86.3874 32.2943 86.4784 32.0777 86.6604 31.913C86.8424 31.7483 87.0808 31.666 87.3754 31.666C87.6701 31.666 87.9084 31.7483 88.0904 31.913C88.2724 32.0777 88.3634 32.2943 88.3634 32.563C88.3634 32.823 88.2724 33.0353 88.0904 33.2C87.9084 33.3647 87.6701 33.447 87.3754 33.447ZM86.5954 41V34.526H88.1554V41H86.5954ZM94.3364 39.531L91.8404 34.552V41H90.3194V31.9H92.2824L95.0644 37.737L97.9244 31.9H99.7054V41H98.1714V34.552L95.6754 39.531H94.3364ZM105.196 41.13C104.511 41.13 103.905 41 103.376 40.74C102.856 40.48 102.449 40.0943 102.154 39.583C101.868 39.0717 101.725 38.4433 101.725 37.698V35.215C101.725 34.4697 101.872 33.8413 102.167 33.33C102.462 32.8187 102.878 32.433 103.415 32.173C103.952 31.9043 104.585 31.77 105.313 31.77C106.275 31.77 107.025 32.0127 107.562 32.498C108.108 32.9833 108.411 33.6333 108.472 34.448H106.925C106.856 34.006 106.687 33.6767 106.418 33.46C106.149 33.2433 105.746 33.135 105.209 33.135C104.594 33.135 104.126 33.33 103.805 33.72C103.484 34.1013 103.324 34.617 103.324 35.267V37.659C103.324 38.2917 103.484 38.803 103.805 39.193C104.134 39.5743 104.624 39.765 105.274 39.765C105.681 39.765 106.006 39.6913 106.249 39.544C106.5 39.3967 106.687 39.193 106.808 38.933C106.929 38.673 106.99 38.3697 106.99 38.023V37.581H105.079V36.229H108.472V37.802C108.472 38.9547 108.203 39.7997 107.666 40.337C107.137 40.8657 106.314 41.13 105.196 41.13Z" fill="white"/>
<path d="M98 20.7407L82.4997 3.93138C80.5382 1.80419 77.1861 1.78105 75.1953 3.88094L42.8771 37.9717C41.9472 38.9526 40.6597 39.5153 39.3081 39.5314L12.0052 39.8569C7.56022 39.9099 5.26143 34.5702 8.35486 31.3778L26.8458 12.2952C28.8806 10.1953 32.2753 10.282 34.2002 12.4829L41.4224 20.7407" stroke="#F9F4ED" stroke-width="4" stroke-linecap="round"/>
<circle cx="44" cy="4" r="4" fill="#F9F4ED"/>
</svg>
