<svg width="105" height="47" viewBox="0 0 105 47" fill="none" xmlns="http://www.w3.org/2000/svg">
<path d="M58.136 37.632V42H56.216V34.032H58.136V35.424C58.392 34.8907 58.7227 34.5013 59.128 34.256C59.5333 34 59.992 33.872 60.504 33.872C61.0907 33.872 61.576 34 61.96 34.256C62.344 34.5013 62.6213 34.88 62.792 35.392C63.08 34.8693 63.4427 34.4853 63.88 34.24C64.328 33.9947 64.8293 33.872 65.384 33.872C66.1733 33.872 66.7867 34.112 67.224 34.592C67.672 35.072 67.896 35.7813 67.896 36.72V42H65.96V37.248C65.96 36.672 65.8587 36.2453 65.656 35.968C65.4533 35.6907 65.1173 35.552 64.648 35.552C64.3493 35.552 64.0773 35.632 63.832 35.792C63.5867 35.9413 63.3893 36.1707 63.24 36.48C63.0907 36.7787 63.016 37.1627 63.016 37.632V42H61.08V37.248C61.08 36.672 60.9787 36.2453 60.776 35.968C60.5733 35.6907 60.2373 35.552 59.768 35.552C59.4693 35.552 59.1973 35.632 58.952 35.792C58.7173 35.9413 58.52 36.1707 58.36 36.48C58.2107 36.7787 58.136 37.1627 58.136 37.632ZM71.176 32.704C70.8133 32.704 70.52 32.6027 70.296 32.4C70.072 32.1973 69.96 31.936 69.96 31.616C69.96 31.2853 70.072 31.0187 70.296 30.816C70.52 30.6133 70.8133 30.512 71.176 30.512C71.5387 30.512 71.832 30.6133 72.056 30.816C72.28 31.0187 72.392 31.2853 72.392 31.616C72.392 31.936 72.28 32.1973 72.056 32.4C71.832 32.6027 71.5387 32.704 71.176 32.704ZM70.216 42V34.032H72.136V42H70.216ZM76.4954 37.632V42H74.5754V34.032H76.4954V35.424C76.762 34.8907 77.1034 34.5013 77.5194 34.256C77.9354 34 78.4047 33.872 78.9274 33.872C79.7487 33.872 80.3887 34.112 80.8474 34.592C81.3167 35.072 81.5514 35.7813 81.5514 36.72V42H79.6154V37.248C79.6154 36.672 79.5034 36.2453 79.2794 35.968C79.066 35.6907 78.7034 35.552 78.1914 35.552C77.882 35.552 77.5994 35.632 77.3434 35.792C77.0874 35.9413 76.8794 36.1707 76.7194 36.48C76.57 36.7787 76.4954 37.1627 76.4954 37.632ZM84.8166 32.704C84.454 32.704 84.1606 32.6027 83.9366 32.4C83.7126 32.1973 83.6006 31.936 83.6006 31.616C83.6006 31.2853 83.7126 31.0187 83.9366 30.816C84.1606 30.6133 84.454 30.512 84.8166 30.512C85.1793 30.512 85.4726 30.6133 85.6966 30.816C85.9206 31.0187 86.0326 31.2853 86.0326 31.616C86.0326 31.936 85.9206 32.1973 85.6966 32.4C85.4726 32.6027 85.1793 32.704 84.8166 32.704ZM83.8566 42V34.032H85.7766V42H83.8566ZM92.504 35.664H90.552V42H88.616V35.664H87.4V34.032H88.616V33.136C88.616 32.1973 88.8667 31.4827 89.368 30.992C89.8693 30.4907 90.632 30.24 91.656 30.24H92.824V31.856H91.816C91.3147 31.856 90.9787 31.9733 90.808 32.208C90.6373 32.4427 90.552 32.7627 90.552 33.168V34.032H92.504V35.664ZM93.8372 45.28H93.2613V43.6H93.7893C94.0986 43.6 94.3653 43.5627 94.5893 43.488C94.8133 43.4133 95.0213 43.2587 95.2133 43.024C95.4159 42.7893 95.6186 42.4267 95.8213 41.936L96.0933 41.28L93.0373 34.032H95.1332L97.0533 38.88L99.0533 34.032H101.037L97.4533 42.512C97.1546 43.216 96.8453 43.7707 96.5253 44.176C96.2159 44.5813 95.8479 44.864 95.4213 45.024C94.9946 45.1947 94.4666 45.28 93.8372 45.28ZM102.191 42.16C101.828 42.16 101.529 42.048 101.295 41.824C101.071 41.6 100.959 41.312 100.959 40.96C100.959 40.608 101.071 40.3253 101.295 40.112C101.529 39.8987 101.828 39.792 102.191 39.792C102.553 39.792 102.847 39.8987 103.071 40.112C103.295 40.3253 103.407 40.608 103.407 40.96C103.407 41.312 103.295 41.6 103.071 41.824C102.847 42.048 102.553 42.16 102.191 42.16Z" fill="white"/>
<path d="M88 21L74.6433 4.66765C72.6603 2.24286 68.9615 2.21771 66.9457 4.6153L38.6679 38.2489C37.733 39.3609 36.3607 40.0112 34.908 40.0308L11.0844 40.351C6.77832 40.4089 4.41828 35.3587 7.22509 32.0926L23.5095 13.1435C25.571 10.7446 29.3139 10.8386 31.2525 13.3378L37.1956 21" stroke="#F9F4ED" stroke-width="4" stroke-linecap="round"/>
<circle cx="44" cy="4" r="4" fill="#F9F4ED"/>
</svg>
