<svg width="271" height="434" viewBox="0 0 271 434" fill="none" xmlns="http://www.w3.org/2000/svg">
<g clip-path="url(#clip0_159_354)">
<path d="M60.511 418.929C79.4956 432.332 104.098 433.005 127.879 431.359C131.2 431.129 134.497 430.859 137.764 430.569C137.784 430.564 137.81 430.566 137.83 430.561C137.987 430.546 138.144 430.531 138.294 430.522C138.968 430.461 139.643 430.399 140.311 430.337L140.153 430.632L139.658 431.547C139.836 431.241 140.014 430.941 140.192 430.634C140.244 430.542 140.303 430.451 140.355 430.359C146.515 419.852 152.625 408.96 154.184 396.963C155.795 384.51 151.267 370.41 140.084 364.29C138.618 363.489 137.065 362.852 135.454 362.389C134.785 362.19 134.107 362.028 133.422 361.885C129.228 360.973 124.861 361.171 120.771 362.461C116.681 363.75 113.016 366.084 110.151 369.222C107.287 372.36 105.327 376.189 104.473 380.315C103.619 384.442 103.902 388.716 105.293 392.7C95.8117 383.172 97.5804 367.716 100.851 354.798C104.128 341.88 108.095 327.506 101.43 315.903C99.5429 312.792 97.0051 310.106 93.9834 308.025C90.9617 305.943 87.5245 304.511 83.898 303.824C83.6737 303.777 83.4497 303.73 83.225 303.689C74.5133 301.959 65.4566 303.515 57.8638 308.044C43.8832 316.678 36.7025 333.048 34.372 349.084C30.617 374.889 38.9267 403.689 60.511 418.929Z" fill="#F2F2F2"/>
<path d="M66.908 377.54C67.4432 383.282 68.7983 388.914 70.9303 394.258C72.8951 398.987 75.5434 403.39 78.7875 407.322C85.5318 415.358 94.0732 421.627 103.693 425.603C110.97 428.637 118.594 430.722 126.384 431.809C129.609 431.578 132.811 431.306 135.984 431.013C136.003 431.008 136.028 431.01 136.048 431.005C136.2 430.99 136.353 430.975 136.499 430.966C137.154 430.904 137.809 430.841 138.457 430.779L138.304 431.076L137.823 432C137.996 431.691 138.169 431.388 138.342 431.079C138.392 430.986 138.449 430.894 138.5 430.801C132.66 424.878 128.299 417.616 125.784 409.624C123.269 401.631 122.672 393.142 124.043 384.867C125.478 376.65 128.801 368.894 133.74 362.233C133.091 362.032 132.432 361.869 131.766 361.725C129.889 364.337 128.243 367.113 126.846 370.021C121.834 380.39 120.236 392.126 122.286 403.492C124.193 413.777 128.942 423.295 135.977 430.929C135.361 430.885 134.739 430.833 134.13 430.777C122.538 429.996 111.185 427.052 100.639 422.092C91.7004 417.781 83.9403 411.3 78.0421 403.218C71.709 394.327 68.9183 383.632 68.4389 372.762C68.07 361.052 69.2758 349.345 72.0228 337.967C74.6867 326.366 78.7353 315.139 84.0782 304.539C84.1977 304.298 84.2218 304.02 84.1456 303.762C84.0693 303.504 83.8986 303.286 83.6686 303.152C83.477 303.021 83.242 302.972 83.0149 303.016C82.9038 303.046 82.8008 303.101 82.7135 303.177C82.6262 303.253 82.5568 303.348 82.5107 303.455C81.8516 304.765 81.2048 306.075 80.5825 307.4C75.4001 318.437 71.5846 330.087 69.2238 342.081C66.7115 353.716 65.9308 365.669 66.908 377.54Z" fill="white"/>
<path d="M248.014 129H165.986C163.471 128.998 161.06 128.125 159.282 126.573C157.503 125.022 156.503 122.919 156.5 120.725V8.27547C156.503 6.08144 157.503 3.97797 159.282 2.42656C161.06 0.87514 163.471 0.00246992 165.986 0H248.014C250.529 0.00246992 252.94 0.87514 254.718 2.42656C256.497 3.97797 257.497 6.08144 257.5 8.27547V120.725C257.497 122.919 256.497 125.022 254.718 126.573C252.94 128.125 250.529 128.998 248.014 129ZM165.986 0.973585C163.767 0.975775 161.64 1.74578 160.07 3.11467C158.501 4.48357 157.619 6.33956 157.616 8.27547V120.725C157.619 122.66 158.501 124.516 160.07 125.885C161.64 127.254 163.767 128.024 165.986 128.026H248.014C250.233 128.024 252.36 127.254 253.93 125.885C255.499 124.516 256.381 122.66 256.384 120.725V8.27547C256.381 6.33956 255.499 4.48357 253.93 3.11467C252.36 1.74578 250.233 0.975775 248.014 0.973585H165.986Z" fill="#3F3D56"/>
<path d="M206.8 169.635L206.8 147.365L206.8 147.107L206.8 147.028L206.8 147.007L206.8 147.002L206.8 147L206.8 147L206.8 147L206.8 147L206.8 146.999L206.8 146.999C206.8 146.998 206.711 146.787 206.5 146.7C206.289 146.787 206.2 146.998 206.2 146.999L206.2 146.999L206.2 147L206.2 147L206.2 147L206.2 147L206.2 147.002L206.2 147.007L206.2 147.028L206.2 147.107L206.2 147.365L206.2 169.635L206.2 169.893L206.2 169.972L206.2 169.993L206.2 169.998L206.2 170L206.2 170L206.2 170L206.2 170L206.2 170.001L206.2 170.001C206.2 170.002 206.289 170.213 206.5 170.3C206.711 170.213 206.8 170.002 206.8 170.001L206.8 170.001L206.8 170L206.8 170L206.8 170L206.8 170L206.8 169.998L206.8 169.993L206.8 169.972L206.8 169.893L206.8 169.635Z" fill="#3F3D56" stroke="#3F3D56" stroke-width="0.6"/>
<path d="M127.896 79C127.813 79 127.732 78.9793 127.665 78.9407C127.598 78.9021 127.547 78.8475 127.521 78.7847C127.494 78.722 127.493 78.6541 127.517 78.5908C127.542 78.5274 127.59 78.4717 127.656 78.4315L140.242 70.7554C140.387 70.6668 140.505 70.5525 140.586 70.4214C140.667 70.2904 140.709 70.1461 140.709 69.9999C140.709 69.8536 140.667 69.7094 140.586 69.5783C140.505 69.4473 140.387 69.333 140.242 69.2444L127.656 61.5682C127.573 61.5173 127.518 61.442 127.504 61.3588C127.49 61.2757 127.518 61.1915 127.581 61.1247C127.645 61.058 127.739 61.0142 127.843 61.0029C127.946 60.9916 128.052 61.0138 128.135 61.0645L140.721 68.7407C140.963 68.8884 141.159 69.0789 141.295 69.2973C141.43 69.5157 141.5 69.7561 141.5 69.9999C141.5 70.2436 141.43 70.4841 141.295 70.7025C141.159 70.9209 140.963 71.1114 140.721 71.2591L128.135 78.9352C128.066 78.9773 127.982 79.0001 127.896 79Z" fill="#3F3D56"/>
<path d="M197.5 164.396C197.5 164.313 197.521 164.232 197.559 164.165C197.598 164.098 197.652 164.047 197.715 164.021C197.778 163.994 197.846 163.993 197.909 164.017C197.973 164.042 198.028 164.09 198.068 164.156L205.745 176.742C205.833 176.887 205.948 177.005 206.079 177.086C206.21 177.167 206.354 177.209 206.5 177.209C206.646 177.209 206.791 177.167 206.922 177.086C207.053 177.005 207.167 176.887 207.256 176.742L214.932 164.156C214.983 164.073 215.058 164.018 215.141 164.004C215.224 163.99 215.309 164.018 215.375 164.081C215.442 164.145 215.486 164.239 215.497 164.343C215.508 164.446 215.486 164.552 215.435 164.635L207.759 177.221C207.612 177.463 207.421 177.659 207.203 177.795C206.984 177.93 206.744 178 206.5 178C206.256 178 206.016 177.93 205.798 177.795C205.579 177.659 205.389 177.463 205.241 177.221L197.565 164.635C197.523 164.566 197.5 164.482 197.5 164.396Z" fill="#3F3D56"/>
<path d="M216.76 45H197.24C195.984 44.9988 194.779 44.577 193.89 43.8271C193.001 43.0772 192.501 42.0605 192.5 41V25C192.501 23.9395 193.001 22.9228 193.89 22.1729C194.779 21.423 195.984 21.0012 197.24 21H216.76C218.016 21.0012 219.221 21.423 220.11 22.1729C220.999 22.9228 221.499 23.9395 221.5 25V41C221.499 42.0605 220.999 43.0772 220.11 43.8271C219.221 44.577 218.016 44.9988 216.76 45Z" fill="#F0C991"/>
<path d="M219.94 45C219.867 45.0001 219.794 44.9877 219.726 44.9636C219.658 44.9394 219.596 44.904 219.544 44.8594L192.664 21.8193C192.612 21.7748 192.571 21.7218 192.543 21.6636C192.514 21.6054 192.5 21.543 192.5 21.4799C192.5 21.4169 192.514 21.3545 192.543 21.2963C192.571 21.238 192.612 21.1851 192.664 21.1406C192.716 21.096 192.778 21.0607 192.846 21.0365C192.914 21.0124 192.986 21 193.06 21C193.133 21 193.206 21.0124 193.274 21.0365C193.342 21.0607 193.404 21.096 193.456 21.1406L220.336 44.1806C220.414 44.2477 220.468 44.3333 220.489 44.4264C220.511 44.5194 220.5 44.6159 220.457 44.7036C220.415 44.7913 220.343 44.8663 220.251 44.919C220.159 44.9718 220.051 45 219.94 45Z" fill="white"/>
<path d="M193.06 45C192.949 45 192.841 44.9718 192.749 44.9191C192.657 44.8663 192.585 44.7914 192.543 44.7037C192.5 44.616 192.489 44.5195 192.511 44.4264C192.532 44.3333 192.586 44.2478 192.664 44.1806L219.544 21.1406C219.596 21.096 219.658 21.0607 219.726 21.0365C219.794 21.0124 219.866 21 219.94 21C220.014 21 220.086 21.0124 220.154 21.0365C220.222 21.0607 220.284 21.096 220.336 21.1406C220.388 21.1851 220.429 21.238 220.457 21.2963C220.486 21.3545 220.5 21.4169 220.5 21.4799C220.5 21.543 220.486 21.6054 220.457 21.6636C220.429 21.7219 220.388 21.7748 220.336 21.8193L193.456 44.8594C193.404 44.904 193.342 44.9394 193.274 44.9636C193.206 44.9877 193.133 45.0001 193.06 45Z" fill="white"/>
<path d="M224.556 70H188.444C186.603 70 184.836 69.4205 183.534 68.3891C182.232 67.3576 181.5 65.9587 181.5 64.5C181.5 63.0413 182.232 61.6424 183.534 60.6109C184.836 59.5795 186.603 59 188.444 59H224.556C226.397 59 228.164 59.5795 229.466 60.6109C230.768 61.6424 231.5 63.0413 231.5 64.5C231.5 65.9587 230.768 67.3576 229.466 68.3891C228.164 69.4205 226.397 70 224.556 70ZM188.444 59.88C186.897 59.88 185.414 60.3667 184.32 61.2332C183.226 62.0996 182.611 63.2747 182.611 64.5C182.611 65.7253 183.226 66.9004 184.32 67.7668C185.414 68.6333 186.897 69.12 188.444 69.12H224.556C226.103 69.12 227.586 68.6333 228.68 67.7668C229.774 66.9004 230.389 65.7253 230.389 64.5C230.389 63.2747 229.774 62.0996 228.68 61.2332C227.586 60.3667 226.103 59.88 224.556 59.88H188.444Z" fill="#3F3D56"/>
<path d="M224.556 88H188.444C186.603 88 184.836 87.4205 183.534 86.3891C182.232 85.3576 181.5 83.9587 181.5 82.5C181.5 81.0413 182.232 79.6424 183.534 78.6109C184.836 77.5795 186.603 77 188.444 77H224.556C226.397 77 228.164 77.5795 229.466 78.6109C230.768 79.6424 231.5 81.0413 231.5 82.5C231.5 83.9587 230.768 85.3576 229.466 86.3891C228.164 87.4205 226.397 88 224.556 88ZM188.444 77.88C186.897 77.88 185.414 78.3667 184.32 79.2332C183.226 80.0996 182.611 81.2747 182.611 82.5C182.611 83.7253 183.226 84.9004 184.32 85.7668C185.414 86.6333 186.897 87.12 188.444 87.12H224.556C226.103 87.12 227.586 86.6333 228.68 85.7668C229.774 84.9004 230.389 83.7253 230.389 82.5C230.389 81.2747 229.774 80.0996 228.68 79.2332C227.586 78.3667 226.103 77.88 224.556 77.88H188.444Z" fill="#3F3D56"/>
<path d="M224.556 107H188.444C186.603 107 184.836 106.421 183.534 105.389C182.232 104.358 181.5 102.959 181.5 101.5C181.5 100.041 182.232 98.6424 183.534 97.6109C184.836 96.5795 186.603 96 188.444 96H224.556C226.397 96 228.164 96.5795 229.466 97.6109C230.768 98.6424 231.5 100.041 231.5 101.5C231.5 102.959 230.768 104.358 229.466 105.389C228.164 106.421 226.397 107 224.556 107ZM188.444 96.88C186.897 96.88 185.414 97.3667 184.32 98.2332C183.226 99.0996 182.611 100.275 182.611 101.5C182.611 102.725 183.226 103.9 184.32 104.767C185.414 105.633 186.897 106.12 188.444 106.12H224.556C226.103 106.12 227.586 105.633 228.68 104.767C229.774 103.9 230.389 102.725 230.389 101.5C230.389 100.275 229.774 99.0996 228.68 98.2332C227.586 97.3667 226.103 96.88 224.556 96.88H188.444Z" fill="#3F3D56"/>
<path d="M240.076 196.111L168.514 207.979C166.32 208.346 164.362 209.567 163.068 211.375C161.774 213.182 161.25 215.429 161.611 217.621L180.275 329.991C180.642 332.183 181.864 334.14 183.673 335.433C185.482 336.726 187.73 337.249 189.924 336.889L261.486 325.021C263.68 324.654 265.638 323.433 266.932 321.625C268.226 319.818 268.75 317.571 268.389 315.379L249.725 203.009C249.358 200.817 248.136 198.86 246.327 197.567C244.518 196.274 242.27 195.751 240.076 196.111ZM267.415 315.54C267.734 317.475 267.272 319.457 266.13 321.052C264.988 322.647 263.26 323.724 261.325 324.048L189.763 335.916C187.826 336.234 185.843 335.773 184.247 334.632C182.65 333.491 181.572 331.764 181.249 329.83L162.585 217.46C162.266 215.525 162.728 213.543 163.87 211.948C165.012 210.353 166.74 209.276 168.675 208.952L240.237 197.084C242.174 196.766 244.157 197.227 245.753 198.368C247.35 199.509 248.428 201.236 248.751 203.17L267.415 315.54Z" fill="#3F3D56"/>
<path d="M226.342 241.54L194.682 246.915C193.068 247.189 191.412 246.796 190.081 245.822C188.75 244.847 187.851 243.372 187.583 241.721C187.315 240.069 187.7 238.376 188.652 237.014C189.604 235.652 191.047 234.733 192.661 234.459L224.321 229.085C225.936 228.812 227.59 229.205 228.92 230.18C230.251 231.154 231.149 232.628 231.417 234.279C231.685 235.93 231.301 237.623 230.349 238.984C229.397 240.346 227.956 241.265 226.342 241.54ZM192.823 235.456C191.467 235.686 190.256 236.458 189.456 237.602C188.656 238.746 188.334 240.168 188.559 241.555C188.784 242.942 189.538 244.181 190.656 244.999C191.774 245.818 193.164 246.148 194.521 245.918L226.181 240.544C227.537 240.313 228.748 239.541 229.548 238.397C230.347 237.253 230.67 235.832 230.445 234.444C230.22 233.057 229.465 231.818 228.347 231C227.229 230.182 225.839 229.851 224.483 230.081L192.823 235.456Z" fill="#CCCCCC"/>
<path d="M230.34 264.54L198.685 269.914C197.885 270.05 197.067 270.024 196.277 269.837C195.488 269.65 194.742 269.305 194.082 268.823C193.423 268.341 192.863 267.73 192.434 267.026C192.005 266.322 191.716 265.539 191.583 264.721C191.451 263.903 191.477 263.066 191.66 262.258C191.844 261.451 192.181 260.688 192.653 260.013C193.125 259.339 193.722 258.766 194.41 258.328C195.098 257.89 195.864 257.595 196.664 257.46L228.319 252.085C229.933 251.811 231.588 252.204 232.919 253.178C234.25 254.152 235.149 255.627 235.417 257.279C235.685 258.931 235.3 260.623 234.348 261.985C233.396 263.347 231.954 264.266 230.34 264.54ZM196.826 258.456C195.47 258.687 194.26 259.459 193.46 260.602C192.661 261.746 192.338 263.168 192.563 264.555C192.788 265.942 193.542 267.18 194.66 267.998C195.778 268.817 197.167 269.147 198.523 268.918L230.178 263.544C231.534 263.313 232.744 262.541 233.543 261.397C234.343 260.253 234.665 258.832 234.44 257.445C234.215 256.058 233.461 254.819 232.344 254.001C231.226 253.183 229.836 252.852 228.481 253.082L196.826 258.456Z" fill="#CCCCCC"/>
<path d="M235.226 287.236L202.849 292.909C202.031 293.053 201.194 293.026 200.386 292.828C199.579 292.63 198.816 292.266 198.141 291.757C197.467 291.248 196.894 290.604 196.455 289.861C196.017 289.118 195.721 288.291 195.585 287.428C195.449 286.564 195.476 285.681 195.664 284.828C195.852 283.975 196.197 283.17 196.679 282.458C197.162 281.746 197.773 281.142 198.477 280.679C199.18 280.217 199.964 279.905 200.782 279.762L233.159 274.089C234.81 273.801 236.501 274.217 237.862 275.245C239.223 276.273 240.141 277.83 240.415 279.572C240.689 281.315 240.296 283.101 239.323 284.539C238.35 285.976 236.876 286.946 235.226 287.236ZM200.947 280.814C200.26 280.934 199.602 281.196 199.011 281.585C198.42 281.973 197.908 282.481 197.502 283.079C197.097 283.677 196.808 284.353 196.65 285.069C196.492 285.785 196.47 286.527 196.584 287.253C196.698 287.978 196.946 288.672 197.314 289.296C197.683 289.92 198.164 290.461 198.73 290.889C199.296 291.317 199.937 291.622 200.615 291.788C201.294 291.955 201.996 291.978 202.683 291.858L235.06 286.185C235.747 286.065 236.405 285.803 236.997 285.414C237.588 285.026 238.101 284.518 238.506 283.92C238.911 283.322 239.201 282.646 239.359 281.929C239.516 281.213 239.539 280.471 239.425 279.746C239.311 279.021 239.062 278.326 238.694 277.702C238.326 277.078 237.845 276.537 237.278 276.109C236.712 275.682 236.071 275.376 235.392 275.21C234.714 275.044 234.011 275.02 233.324 275.141L200.947 280.814Z" fill="#CCCCCC"/>
<path d="M238.225 308.843L205.845 313.92C205.028 314.048 204.191 314.023 203.384 313.845C202.576 313.668 201.814 313.343 201.14 312.887C200.466 312.432 199.893 311.855 199.455 311.19C199.016 310.526 198.721 309.786 198.585 309.014C198.449 308.242 198.476 307.451 198.664 306.689C198.851 305.926 199.196 305.206 199.678 304.569C200.16 303.932 200.771 303.391 201.474 302.977C202.178 302.563 202.961 302.284 203.779 302.156L236.158 297.08C237.809 296.822 239.501 297.194 240.862 298.114C242.223 299.034 243.141 300.427 243.415 301.986C243.689 303.545 243.296 305.144 242.323 306.43C241.35 307.715 239.876 308.584 238.225 308.843ZM203.944 303.097C203.257 303.205 202.599 303.439 202.008 303.787C201.417 304.135 200.905 304.589 200.5 305.124C199.682 306.204 199.351 307.547 199.581 308.858C199.812 310.168 200.584 311.338 201.727 312.111C202.871 312.884 204.293 313.196 205.68 312.978L238.06 307.902C239.447 307.685 240.685 306.955 241.503 305.875C242.321 304.795 242.651 303.452 242.421 302.142C242.191 300.832 241.419 299.662 240.276 298.889C239.132 298.116 237.711 297.804 236.324 298.021L203.944 303.097Z" fill="#CCCCCC"/>
<path d="M249.091 209.015L163.069 223.993C163.005 224.004 162.941 224.002 162.878 223.987C162.816 223.972 162.757 223.944 162.704 223.905C162.652 223.866 162.608 223.817 162.574 223.76C162.54 223.703 162.517 223.639 162.507 223.573C162.496 223.506 162.498 223.438 162.513 223.373C162.527 223.307 162.554 223.246 162.591 223.191C162.629 223.136 162.676 223.09 162.731 223.054C162.785 223.019 162.846 222.995 162.909 222.985L248.931 208.007C248.995 207.996 249.059 207.998 249.122 208.013C249.184 208.028 249.243 208.056 249.296 208.095C249.348 208.134 249.392 208.183 249.426 208.24C249.46 208.298 249.483 208.361 249.493 208.427C249.504 208.494 249.502 208.562 249.487 208.627C249.473 208.693 249.446 208.754 249.409 208.809C249.371 208.864 249.324 208.91 249.269 208.946C249.215 208.981 249.154 209.005 249.091 209.015Z" fill="#3F3D56"/>
<path d="M171.5 218C173.709 218 175.5 216.433 175.5 214.5C175.5 212.567 173.709 211 171.5 211C169.291 211 167.5 212.567 167.5 214.5C167.5 216.433 169.291 218 171.5 218Z" fill="#F0C991"/>
<path d="M241.078 201.13L231.088 202.993C230.955 203.017 230.82 202.981 230.711 202.893C230.602 202.805 230.529 202.673 230.507 202.524C230.485 202.376 230.516 202.224 230.594 202.101C230.672 201.978 230.79 201.895 230.922 201.87L240.912 200.007C241.045 199.983 241.18 200.019 241.289 200.107C241.398 200.195 241.471 200.327 241.493 200.476C241.515 200.624 241.484 200.777 241.406 200.899C241.328 201.022 241.21 201.105 241.078 201.13Z" fill="#3F3D56"/>
<path d="M242.078 203.753L232.088 204.995C231.955 205.011 231.82 204.987 231.711 204.929C231.602 204.87 231.529 204.782 231.507 204.683C231.485 204.584 231.516 204.482 231.594 204.401C231.672 204.319 231.79 204.264 231.922 204.247L241.912 203.005C242.045 202.989 242.18 203.013 242.289 203.071C242.398 203.13 242.471 203.218 242.493 203.317C242.515 203.416 242.484 203.518 242.406 203.599C242.328 203.681 242.21 203.736 242.078 203.753Z" fill="#3F3D56"/>
<path d="M242.075 206.13L232.091 207.992C232.025 208.005 231.958 208.002 231.893 207.986C231.828 207.969 231.767 207.938 231.712 207.894C231.658 207.851 231.612 207.796 231.577 207.732C231.541 207.669 231.518 207.598 231.507 207.524C231.496 207.451 231.498 207.375 231.513 207.302C231.528 207.229 231.556 207.161 231.595 207.1C231.634 207.039 231.683 206.987 231.739 206.948C231.796 206.909 231.859 206.882 231.925 206.87L241.909 205.008C241.975 204.995 242.042 204.998 242.107 205.014C242.172 205.031 242.233 205.062 242.288 205.106C242.342 205.149 242.388 205.204 242.423 205.268C242.459 205.331 242.482 205.402 242.493 205.476C242.504 205.549 242.502 205.625 242.487 205.698C242.472 205.771 242.444 205.839 242.405 205.9C242.366 205.961 242.317 206.013 242.26 206.052C242.204 206.091 242.141 206.118 242.075 206.13Z" fill="#3F3D56"/>
<path d="M259.257 327.04C259.493 326.267 259.558 325.451 259.448 324.649C259.339 323.847 259.057 323.079 258.623 322.4C258.189 321.72 257.613 321.146 256.936 320.716C256.259 320.286 255.497 320.012 254.704 319.913L228.591 289L222.5 295.479L248.511 325.119C248.435 326.48 248.854 327.821 249.689 328.889C250.524 329.958 251.717 330.678 253.042 330.915C254.366 331.152 255.731 330.888 256.876 330.174C258.022 329.46 258.869 328.345 259.257 327.04Z" fill="#A0616A"/>
<path d="M236.572 295.57L227.338 302.549C227.075 302.747 226.774 302.885 226.455 302.953C226.136 303.02 225.807 303.016 225.49 302.94C225.173 302.864 224.876 302.718 224.618 302.512C224.36 302.307 224.149 302.046 223.997 301.748L218.691 291.311C217.716 289.915 217.316 288.177 217.579 286.477C217.842 284.777 218.746 283.254 220.093 282.242C221.44 281.23 223.12 280.812 224.765 281.079C226.41 281.346 227.885 282.277 228.868 283.667L236.848 292.036C237.077 292.275 237.253 292.563 237.364 292.879C237.475 293.196 237.519 293.533 237.493 293.868C237.466 294.204 237.371 294.529 237.212 294.823C237.053 295.117 236.834 295.372 236.572 295.57Z" fill="#F0C991"/>
<path d="M218.5 276C225.127 276 230.5 270.404 230.5 263.5C230.5 256.596 225.127 251 218.5 251C211.873 251 206.5 256.596 206.5 263.5C206.5 270.404 211.873 276 218.5 276Z" fill="#A0616A"/>
<path d="M224.044 319C223.913 319 223.782 318.99 223.653 318.968L201.441 315.369C200.906 315.283 200.419 315.019 200.065 314.623C199.712 314.227 199.514 313.724 199.506 313.201C199.439 308.309 199.819 295.958 204.798 286.962C206.355 284.15 208.919 281.978 212.015 280.85C215.11 279.723 218.526 279.716 221.626 280.832C224.726 281.947 227.3 284.109 228.869 286.915C230.437 289.721 230.894 292.98 230.154 296.086C228.488 302.996 227.214 309.989 226.339 317.032C226.272 317.574 226.002 318.072 225.579 318.435C225.156 318.797 224.61 318.998 224.044 319Z" fill="#2F2E41"/>
<path d="M178.678 278.979C178.739 279.244 178.778 279.513 178.796 279.784L199.901 291.956L205.031 289.004L210.5 296.161L201.926 302.27C201.234 302.764 200.4 303.02 199.55 302.999C198.699 302.978 197.879 302.682 197.211 302.156L175.448 284.991C174.465 285.355 173.396 285.411 172.381 285.151C171.366 284.892 170.455 284.331 169.767 283.541C169.08 282.751 168.649 281.771 168.532 280.73C168.415 279.69 168.618 278.638 169.114 277.716C169.61 276.794 170.374 276.044 171.307 275.567C172.239 275.09 173.294 274.907 174.332 275.044C175.371 275.181 176.343 275.631 177.119 276.334C177.895 277.037 178.439 277.959 178.678 278.979Z" fill="#A0616A"/>
<path d="M200.548 290.316C200.615 289.999 200.753 289.701 200.953 289.44C201.152 289.179 201.407 288.963 201.702 288.805L211.991 283.3C213.359 282.291 215.088 281.841 216.801 282.05C218.514 282.259 220.071 283.109 221.13 284.414C222.189 285.719 222.663 287.373 222.45 289.013C222.237 290.652 221.353 292.144 219.991 293.161L211.788 301.312C211.553 301.544 211.27 301.726 210.956 301.844C210.641 301.962 210.304 302.014 209.967 301.997C209.63 301.979 209.301 301.892 209.002 301.742C208.704 301.591 208.442 301.381 208.236 301.126L200.989 292.139C200.783 291.884 200.637 291.588 200.561 291.274C200.484 290.959 200.48 290.632 200.548 290.316Z" fill="#F0C991"/>
<path d="M191.499 428H185.024L183.5 405.074L191.5 405L191.499 428Z" fill="#A0616A"/>
<path d="M192.5 433L173.5 432.999V432.748C173.5 431.73 173.691 430.723 174.063 429.783C174.435 428.843 174.979 427.989 175.666 427.269C176.353 426.55 177.168 425.979 178.065 425.59C178.962 425.2 179.924 425 180.895 425L192.5 425.001L192.5 433Z" fill="#2F2E41"/>
<path d="M248.499 428H243.079L240.5 405H248.5L248.499 428Z" fill="#A0616A"/>
<path d="M249.5 433L230.5 432.999V432.748C230.5 431.73 230.691 430.723 231.063 429.783C231.435 428.843 231.979 427.989 232.666 427.269C233.353 426.55 234.168 425.979 235.065 425.59C235.962 425.2 236.924 425 237.895 425L249.5 425.001L249.5 433Z" fill="#2F2E41"/>
<path d="M241.625 416C241.157 415.999 240.701 415.853 240.32 415.583C239.938 415.313 239.65 414.931 239.494 414.491L219.917 358.595C219.842 358.381 219.71 358.192 219.536 358.046C219.361 357.901 219.15 357.806 218.926 357.772C218.702 357.737 218.472 357.764 218.262 357.85C218.052 357.935 217.869 358.076 217.732 358.258L198.636 383.702C198.488 383.901 198.383 384.129 198.328 384.371L192.243 411.5C192.134 411.982 191.87 412.415 191.491 412.733C191.112 413.051 190.639 413.235 190.145 413.258L182.857 413.589C182.543 413.605 182.229 413.554 181.936 413.44C181.642 413.326 181.377 413.151 181.156 412.927C180.934 412.704 180.762 412.438 180.649 412.144C180.537 411.851 180.487 411.537 180.503 411.223L181.774 386.461C182.175 378.45 184.24 370.611 187.838 363.441C195.838 347.501 200.466 330.084 201.435 312.277L201.45 312L223.874 315.565L227.241 320.223C228.743 322.324 230.37 324.334 232.113 326.24C236.4 330.885 237.687 337.097 238.012 341.49C238.432 346.889 239.197 352.256 240.302 357.558L251.423 412.169C251.506 412.479 251.522 412.803 251.47 413.12C251.418 413.437 251.298 413.739 251.12 414.006C250.941 414.273 250.708 414.498 250.435 414.668C250.162 414.837 249.856 414.946 249.537 414.988L241.913 415.981C241.818 415.994 241.721 416 241.625 416Z" fill="#2F2E41"/>
<path d="M231.665 255.848C230.695 252.982 229.979 250.04 229.525 247.055C229.382 245.317 229.839 243.447 231.138 242.248C233.567 240.004 237.696 241.073 240.237 243.196C243.91 246.266 245.741 250.983 246.434 255.65C247.126 260.318 246.821 265.064 246.988 269.777C247.154 274.49 247.846 279.336 250.311 283.393C252.776 287.451 257.35 290.566 262.174 290.22C264.122 290.118 265.971 289.354 267.401 288.061C268.103 287.41 268.634 286.605 268.951 285.712C269.268 284.82 269.36 283.866 269.221 282.931C271.687 287.236 270.437 293.069 266.759 296.453C263.081 299.837 257.423 300.794 252.587 299.349C247.752 297.904 243.772 294.282 241.395 289.93C239.018 285.579 238.147 280.552 238.273 275.623C238.37 271.839 239.03 268.023 238.374 264.291C237.718 260.56 235.322 256.771 231.544 255.892L231.665 255.848Z" fill="#2F2E41"/>
<path d="M215.345 260.53C214.733 262.616 212.392 263.903 210.287 263.55C208.181 263.197 206.45 261.427 205.81 259.35C205.232 257.228 205.468 254.961 206.472 253.012C207.025 251.843 207.799 250.797 208.748 249.934C209.698 249.071 210.805 248.408 212.006 247.981C213.214 247.573 214.501 247.467 215.757 247.672C217.014 247.877 218.204 248.387 219.227 249.159C219.336 248.69 219.565 248.26 219.891 247.912C220.218 247.564 220.629 247.31 221.083 247.178C221.997 246.927 222.961 246.942 223.868 247.22C226.479 247.98 228.742 249.66 230.254 251.962C231.747 254.257 232.734 256.854 233.148 259.576C233.861 263.658 233.598 268.118 231.352 271.572C229.106 275.027 224.51 277.067 220.782 275.42C220.549 274.207 221.1 272.986 221.737 271.935C222.374 270.884 223.129 269.86 223.374 268.65C223.619 267.439 223.15 265.959 222.002 265.563C221.024 265.225 219.98 265.772 218.949 265.838C218.364 265.876 217.779 265.756 217.253 265.49C216.727 265.224 216.28 264.821 215.954 264.323C215.629 263.824 215.438 263.248 215.401 262.65C215.363 262.053 215.48 261.455 215.74 260.919L215.345 260.53Z" fill="#2F2E41"/>
<path d="M270.295 434H1.70496C1.51799 434 1.33869 433.895 1.20649 433.707C1.07428 433.52 1 433.265 1 433C1 432.735 1.07428 432.48 1.20649 432.293C1.33869 432.105 1.51799 432 1.70496 432H270.295C270.482 432 270.661 432.105 270.794 432.293C270.926 432.48 271 432.735 271 433C271 433.265 270.926 433.52 270.794 433.707C270.661 433.895 270.482 434 270.295 434Z" fill="#CCCCCC"/>
<path d="M133.135 69.7L110.865 69.7L110.607 69.7L110.528 69.7L110.507 69.7L110.502 69.7L110.5 69.7L110.5 69.7L110.5 69.7L110.5 69.7L110.499 69.7L110.499 69.7C110.498 69.7 110.287 69.7886 110.2 70C110.287 70.2114 110.498 70.3 110.499 70.3L110.499 70.3L110.5 70.3L110.5 70.3L110.5 70.3L110.5 70.3L110.502 70.3L110.507 70.3L110.528 70.3L110.607 70.3L110.865 70.3L133.135 70.3L133.393 70.3L133.472 70.3L133.493 70.3L133.498 70.3L133.5 70.3L133.5 70.3L133.5 70.3L133.5 70.3L133.501 70.3L133.501 70.3C133.502 70.3 133.713 70.2114 133.8 70C133.713 69.7886 133.502 69.7 133.501 69.7L133.501 69.7L133.5 69.7L133.5 69.7L133.5 69.7L133.5 69.7L133.498 69.7L133.493 69.7L133.472 69.7L133.393 69.7L133.135 69.7Z" fill="#3F3D56" stroke="#3F3D56" stroke-width="0.6"/>
<path d="M92.0138 4H9.98619C7.47139 4.0031 5.0606 4.87598 3.28237 6.42725C1.50413 7.97853 0.503558 10.0816 0.5 12.2755V124.725C0.503559 126.918 1.50413 129.021 3.28237 130.573C5.0606 132.124 7.47139 132.997 9.98619 133H92.0138C94.5286 132.997 96.9394 132.124 98.7176 130.573C100.496 129.021 101.496 126.918 101.5 124.725V12.2755C101.496 10.0816 100.496 7.97854 98.7176 6.42726C96.9394 4.87598 94.5286 4.0031 92.0138 4ZM100.384 124.725C100.381 126.66 99.4986 128.516 97.9295 129.885C96.3603 131.254 94.2329 132.024 92.0138 132.026H9.98619C7.76711 132.024 5.6397 131.254 4.07057 129.885C2.50144 128.516 1.61872 126.66 1.61602 124.725V12.2755C1.61872 10.3396 2.50144 8.48372 4.07057 7.11486C5.6397 5.746 7.76711 4.97594 9.98619 4.97358H92.0138C94.2329 4.97594 96.3603 5.746 97.9295 7.11486C99.4986 8.48372 100.381 10.3396 100.384 12.2755V124.725Z" fill="#3F3D56"/>
<path d="M71.788 77H30.212C28.9627 76.9988 27.765 76.5651 26.8816 75.794C25.9983 75.023 25.5014 73.9775 25.5 72.8871V36.1129C25.5014 35.0225 25.9983 33.977 26.8816 33.206C27.765 32.4349 28.9627 32.0012 30.212 32H71.788C73.0373 32.0012 74.235 32.4349 75.1184 33.206C76.0017 33.977 76.4986 35.0225 76.5 36.1129V72.8871C76.4986 73.9775 76.0017 75.023 75.1184 75.794C74.235 76.5651 73.0373 76.9988 71.788 77Z" fill="#F0C991"/>
<path d="M68.5556 105H32.4444C30.6027 105 28.8363 104.368 27.534 103.243C26.2316 102.117 25.5 100.591 25.5 99C25.5 97.4087 26.2316 95.8826 27.534 94.7574C28.8363 93.6321 30.6027 93 32.4444 93H68.5556C70.3973 93 72.1637 93.6321 73.466 94.7574C74.7684 95.8826 75.5 97.4087 75.5 99C75.5 100.591 74.7684 102.117 73.466 103.243C72.1637 104.368 70.3973 105 68.5556 105ZM32.4444 93.96C30.8973 93.96 29.4136 94.491 28.3197 95.4362C27.2257 96.3814 26.6111 97.6633 26.6111 99C26.6111 100.337 27.2257 101.619 28.3197 102.564C29.4136 103.509 30.8973 104.04 32.4444 104.04H68.5556C70.1027 104.04 71.5864 103.509 72.6804 102.564C73.7743 101.619 74.3889 100.337 74.3889 99C74.3889 97.6633 73.7743 96.3814 72.6804 95.4362C71.5864 94.491 70.1027 93.96 68.5556 93.96H32.4444Z" fill="#3F3D56"/>
<path d="M75.9445 76C75.8715 76.0001 75.7993 75.9878 75.7318 75.9637C75.6644 75.9397 75.6032 75.9045 75.5517 75.86L26.6652 33.8177C26.6131 33.7734 26.5716 33.7207 26.5433 33.6627C26.5149 33.6046 26.5002 33.5422 26.5 33.4792C26.4998 33.4162 26.514 33.3538 26.542 33.2956C26.5699 33.2374 26.6109 33.1845 26.6627 33.1399C26.7145 33.0954 26.7761 33.0601 26.8438 33.0361C26.9115 33.0121 26.9841 32.9998 27.0573 33C27.1306 33.0002 27.2031 33.0129 27.2706 33.0373C27.3381 33.0617 27.3994 33.0973 27.4509 33.1421L76.3373 75.1844C76.415 75.2513 76.4679 75.3364 76.4893 75.4291C76.5108 75.5217 76.4998 75.6178 76.4577 75.7051C76.4157 75.7924 76.3445 75.867 76.2531 75.9194C76.1618 75.9719 76.0544 76 75.9445 76Z" fill="white"/>
<path d="M27.0555 76C26.9456 76 26.8382 75.972 26.7469 75.9195C26.6555 75.867 26.5843 75.7924 26.5423 75.7051C26.5003 75.6178 26.4892 75.5218 26.5107 75.4291C26.5321 75.3364 26.585 75.2513 26.6627 75.1845L75.5491 33.1421C75.6006 33.0973 75.6619 33.0617 75.7294 33.0373C75.7969 33.0129 75.8694 33.0002 75.9427 33C76.0159 32.9998 76.0885 33.0121 76.1562 33.0361C76.2239 33.0601 76.2855 33.0954 76.3373 33.1399C76.3891 33.1845 76.4301 33.2374 76.458 33.2956C76.486 33.3538 76.5002 33.4162 76.5 33.4792C76.4998 33.5422 76.4851 33.6046 76.4567 33.6626C76.4284 33.7207 76.3869 33.7734 76.3348 33.8177L27.4483 75.86C27.3968 75.9045 27.3356 75.9397 27.2682 75.9637C27.2007 75.9878 27.1285 76.0001 27.0555 76Z" fill="white"/>
</g>
<defs>
<clipPath id="clip0_159_354">
<rect width="270" height="434" fill="white" transform="translate(0.5)"/>
</clipPath>
</defs>
</svg>
