<svg width="644" height="306" viewBox="0 0 644 306" fill="none" xmlns="http://www.w3.org/2000/svg">
<g clip-path="url(#clip0_159_171)">
<path d="M604.357 289.18C576.495 306.427 540.387 307.293 505.485 305.175C500.611 304.879 495.772 304.532 490.978 304.158C490.949 304.152 490.911 304.154 490.881 304.148C490.651 304.129 490.42 304.11 490.2 304.099C489.21 304.019 488.22 303.94 487.24 303.86L487.471 304.239L488.198 305.417C487.937 305.023 487.676 304.637 487.415 304.243C487.338 304.124 487.252 304.007 487.175 303.888C478.134 290.368 469.166 276.352 466.879 260.914C464.514 244.889 471.159 226.745 487.572 218.869C489.724 217.839 492.004 217.019 494.368 216.423C495.35 216.167 496.344 215.959 497.351 215.775C503.506 214.6 509.914 214.856 515.917 216.515C521.919 218.174 527.299 221.177 531.503 225.215C535.707 229.253 538.584 234.181 539.837 239.491C541.09 244.801 540.675 250.302 538.634 255.428C552.549 243.167 549.953 223.277 545.153 206.654C540.344 190.032 534.521 171.535 544.303 156.604C549.741 148.294 559.303 143.138 570.034 141.061C570.363 141 570.692 140.939 571.021 140.886C583.807 138.661 597.099 140.662 608.243 146.49C628.761 157.601 639.3 178.667 642.72 199.302C648.231 232.509 636.035 269.568 604.357 289.18Z" fill="#F2F2F2"/>
<path d="M595.322 235.764C594.511 243.064 592.457 250.224 589.226 257.018C586.249 263.03 582.235 268.628 577.319 273.627C567.276 283.943 553.997 291.7 539.575 296.868C528.548 300.724 516.994 303.375 505.189 304.758C500.301 304.463 495.448 304.118 490.64 303.745C490.611 303.739 490.573 303.741 490.544 303.734C490.313 303.716 490.081 303.697 489.86 303.686C488.868 303.606 487.875 303.527 486.892 303.447L487.124 303.826L487.853 305C487.591 304.607 487.329 304.222 487.067 303.829C486.99 303.711 486.904 303.594 486.827 303.476C495.678 295.945 502.286 286.713 506.098 276.552C509.91 266.392 510.814 255.599 508.736 245.079C506.561 234.632 501.525 224.773 494.04 216.304C495.025 216.048 496.022 215.841 497.031 215.658C499.876 218.979 502.371 222.508 504.488 226.205C512.083 239.387 514.506 254.307 511.399 268.757C508.51 281.833 501.312 293.934 490.651 303.638C491.584 303.582 492.527 303.517 493.449 303.445C510.921 302.181 528.357 298.973 544.204 292.403C557.75 286.924 569.51 278.683 578.449 268.409C588.046 257.105 592.275 243.509 593.002 229.69C593.772 214.896 591.524 199.842 587.571 185.455C583.534 170.705 577.398 156.433 569.301 142.956C569.12 142.651 569.084 142.297 569.199 141.969C569.315 141.641 569.573 141.364 569.922 141.194C570.212 141.027 570.568 140.964 570.913 141.02C571.081 141.058 571.237 141.128 571.369 141.225C571.502 141.321 571.607 141.443 571.677 141.579C572.676 143.244 573.656 144.91 574.599 146.594C582.453 160.626 588.235 175.436 591.812 190.685C595.286 205.395 597.139 220.784 595.322 235.764Z" fill="white"/>
<path d="M231.542 296.387C245.793 305.219 264.262 305.662 282.114 304.577C284.607 304.426 287.082 304.248 289.535 304.057C289.549 304.054 289.569 304.055 289.584 304.052C289.702 304.042 289.82 304.032 289.933 304.026C290.439 303.986 290.945 303.945 291.447 303.904L291.328 304.098L290.956 304.702C291.09 304.5 291.223 304.302 291.357 304.1C291.396 304.04 291.44 303.979 291.479 303.919C296.104 296.996 300.691 289.819 301.861 281.914C303.07 273.708 299.672 264.418 291.277 260.385C290.176 259.857 289.01 259.437 287.8 259.132C287.298 259.001 286.79 258.895 286.275 258.8C283.126 258.199 279.849 258.33 276.778 259.179C273.708 260.029 270.956 261.567 268.806 263.634C266.656 265.702 265.184 268.225 264.543 270.944C263.902 273.663 264.115 276.48 265.159 279.105C258.041 272.827 259.369 262.642 261.824 254.13C264.284 245.619 267.262 236.147 262.259 228.502C260.842 226.452 258.937 224.683 256.669 223.311C254.401 221.939 251.82 220.996 249.098 220.543C248.93 220.512 248.761 220.481 248.593 220.454C242.053 219.314 235.254 220.339 229.554 223.323C219.059 229.012 213.669 239.799 211.919 250.366C209.1 267.369 215.338 286.345 231.542 296.387Z" fill="#F2F2F2"/>
<path d="M236.077 269.537C236.495 273.277 237.551 276.944 239.213 280.424C240.745 283.503 242.81 286.371 245.339 288.931C250.597 294.163 257.256 298.246 264.756 300.835C270.429 302.81 276.373 304.168 282.446 304.876C284.961 304.725 287.457 304.548 289.931 304.357C289.946 304.354 289.965 304.355 289.98 304.352C290.099 304.342 290.218 304.333 290.332 304.327C290.843 304.286 291.353 304.246 291.859 304.205L291.74 304.399L291.365 305C291.499 304.799 291.634 304.602 291.769 304.4C291.809 304.34 291.853 304.28 291.892 304.219C287.339 300.362 283.94 295.633 281.979 290.429C280.018 285.225 279.552 279.697 280.621 274.309C281.74 268.958 284.331 263.908 288.182 259.57C287.675 259.439 287.162 259.333 286.643 259.239C285.179 260.94 283.896 262.748 282.807 264.641C278.899 271.393 277.653 279.035 279.252 286.436C280.738 293.134 284.441 299.332 289.925 304.302C289.445 304.274 288.96 304.24 288.486 304.204C279.448 303.695 270.597 301.778 262.375 298.548C255.406 295.741 249.356 291.521 244.758 286.258C239.82 280.469 237.645 273.505 237.271 266.427C236.983 258.801 237.923 251.178 240.065 243.769C242.142 236.215 245.298 228.905 249.464 222.002C249.557 221.845 249.576 221.664 249.516 221.496C249.457 221.328 249.324 221.186 249.144 221.099C248.995 221.014 248.812 220.982 248.635 221.01C248.548 221.03 248.468 221.066 248.4 221.115C248.332 221.165 248.278 221.227 248.242 221.296C247.728 222.149 247.224 223.002 246.738 223.865C242.698 231.052 239.723 238.638 237.883 246.448C235.924 254.024 235.316 261.808 236.077 269.537Z" fill="white"/>
<path d="M136.862 198H14.1869C10.4256 197.996 6.81959 196.718 4.15994 194.445C1.5003 192.172 0.00423427 189.09 0 185.875V21.1245C0.00423427 17.91 1.5003 14.8282 4.15994 12.5552C6.81959 10.2822 10.4256 9.00362 14.1869 9H136.862C140.624 9.00362 144.23 10.2822 146.889 12.5552C149.549 14.8282 151.045 17.91 151.049 21.1245V185.875C151.045 189.09 149.549 192.172 146.889 194.445C144.23 196.718 140.624 197.996 136.862 198ZM14.1869 10.4264C10.8681 10.4296 7.68635 11.5578 5.33961 13.5634C2.99286 15.5689 1.67281 18.2882 1.66905 21.1245V185.875C1.67281 188.712 2.99286 191.431 5.33961 193.437C7.68635 195.442 10.8681 196.57 14.1869 196.574H136.862C140.181 196.57 143.363 195.442 145.71 193.437C148.056 191.431 149.376 188.712 149.38 185.875V21.1245C149.376 18.2882 148.056 15.5689 145.71 13.5634C143.363 11.5578 140.181 10.4296 136.862 10.4264H14.1869Z" fill="#3F3D56"/>
<path d="M90.117 75H61.9523C60.1388 74.9982 58.4002 74.3655 57.1179 73.2407C55.8356 72.1158 55.1143 70.5908 55.1123 69V45C55.1143 43.4092 55.8356 41.8842 57.1179 40.7593C58.4002 39.6345 60.1388 39.0018 61.9523 39H90.117C91.9305 39.0018 93.6691 39.6345 94.9514 40.7593C96.2337 41.8842 96.955 43.4092 96.957 45V69C96.955 70.5908 96.2337 72.1158 94.9514 73.2407C93.6691 74.3655 91.9305 74.9982 90.117 75Z" fill="#F0C991"/>
<path d="M95.12 75C95.0128 75.0001 94.9066 74.9815 94.8075 74.9453C94.7085 74.9091 94.6185 74.856 94.5428 74.789L55.3514 40.229C55.2756 40.1621 55.2155 40.0828 55.1744 39.9954C55.1334 39.9081 55.1123 39.8145 55.1123 39.7199C55.1123 39.6254 55.1334 39.5318 55.1744 39.4444C55.2155 39.3571 55.2756 39.2777 55.3514 39.2108C55.4272 39.144 55.5172 39.091 55.6163 39.0548C55.7153 39.0186 55.8215 39 55.9287 39C56.0359 39 56.1421 39.0186 56.2411 39.0548C56.3402 39.091 56.4302 39.144 56.506 39.2109L95.6973 73.7709C95.8115 73.8716 95.8892 73.9999 95.9207 74.1395C95.9522 74.2792 95.936 74.4239 95.8742 74.5554C95.8124 74.687 95.7079 74.7994 95.5736 74.8786C95.4394 74.9577 95.2815 75 95.12 75Z" fill="white"/>
<path d="M55.9286 75C55.7671 75 55.6093 74.9577 55.4751 74.8786C55.3408 74.7995 55.2362 74.687 55.1744 74.5555C55.1127 74.4239 55.0965 74.2792 55.128 74.1396C55.1595 73.9999 55.2372 73.8717 55.3513 73.771L94.5427 39.2109C94.6185 39.144 94.7085 39.091 94.8075 39.0548C94.9066 39.0186 95.0127 39 95.12 39C95.2272 39 95.3333 39.0186 95.4324 39.0548C95.5314 39.091 95.6214 39.144 95.6972 39.2109C95.773 39.2777 95.8332 39.3571 95.8742 39.4444C95.9153 39.5318 95.9364 39.6254 95.9364 39.7199C95.9364 39.8145 95.9153 39.9081 95.8742 39.9954C95.8332 40.0828 95.773 40.1621 95.6972 40.229L56.5059 74.7891C56.4302 74.856 56.3402 74.9092 56.2412 74.9454C56.1421 74.9816 56.0358 75.0001 55.9286 75Z" fill="white"/>
<path d="M102.797 114H48.2517C45.4697 114 42.8017 112.999 40.8345 111.217C38.8674 109.436 37.7622 107.02 37.7622 104.5C37.7622 101.98 38.8674 99.5641 40.8345 97.7825C42.8017 96.0009 45.4697 95 48.2517 95H102.797C105.579 95 108.247 96.0009 110.214 97.7825C112.182 99.5641 113.287 101.98 113.287 104.5C113.287 107.02 112.182 109.436 110.214 111.217C108.247 112.999 105.579 114 102.797 114ZM48.2517 96.52C45.9149 96.52 43.6737 97.3607 42.0213 98.8573C40.3688 100.354 39.4405 102.384 39.4405 104.5C39.4405 106.616 40.3688 108.646 42.0213 110.143C43.6737 111.639 45.9149 112.48 48.2517 112.48H102.797C105.134 112.48 107.375 111.639 109.028 110.143C110.68 108.646 111.608 106.616 111.608 104.5C111.608 102.384 110.68 100.354 109.028 98.8573C107.375 97.3607 105.134 96.52 102.797 96.52H48.2517Z" fill="#3F3D56"/>
<path d="M102.797 140H48.2517C45.4697 140 42.8017 139.052 40.8345 137.364C38.8674 135.676 37.7622 133.387 37.7622 131C37.7622 128.613 38.8674 126.324 40.8345 124.636C42.8017 122.948 45.4697 122 48.2517 122H102.797C105.579 122 108.247 122.948 110.214 124.636C112.182 126.324 113.287 128.613 113.287 131C113.287 133.387 112.182 135.676 110.214 137.364C108.247 139.052 105.579 140 102.797 140ZM48.2517 123.44C45.9149 123.44 43.6737 124.236 42.0213 125.654C40.3688 127.072 39.4405 128.995 39.4405 131C39.4405 133.005 40.3688 134.928 42.0213 136.346C43.6737 137.764 45.9149 138.56 48.2517 138.56H102.797C105.134 138.56 107.375 137.764 109.028 136.346C110.68 134.928 111.608 133.005 111.608 131C111.608 128.995 110.68 127.072 109.028 125.654C107.375 124.236 105.134 123.44 102.797 123.44H48.2517Z" fill="#3F3D56"/>
<path d="M102.797 167H48.2517C45.4697 167 42.8017 166.104 40.8345 164.51C38.8674 162.916 37.7622 160.754 37.7622 158.5C37.7622 156.246 38.8674 154.084 40.8345 152.49C42.8017 150.896 45.4697 150 48.2517 150H102.797C105.579 150 108.247 150.896 110.214 152.49C112.182 154.084 113.287 156.246 113.287 158.5C113.287 160.754 112.182 162.916 110.214 164.51C108.247 166.104 105.579 167 102.797 167ZM48.2517 151.36C45.9149 151.36 43.6737 152.112 42.0213 153.451C40.3688 154.79 39.4405 156.606 39.4405 158.5C39.4405 160.394 40.3688 162.21 42.0213 163.549C43.6737 164.888 45.9149 165.64 48.2517 165.64H102.797C105.134 165.64 107.375 164.888 109.028 163.549C110.68 162.21 111.608 160.394 111.608 158.5C111.608 156.606 110.68 154.79 109.028 153.451C107.375 152.112 105.134 151.36 102.797 151.36H48.2517Z" fill="#3F3D56"/>
<path d="M430.994 0.142973L323.829 15.3777C320.544 15.8487 317.611 17.4162 315.674 19.7364C313.736 22.0567 312.951 24.9403 313.492 27.7552L341.441 172.003C341.991 174.817 343.821 177.329 346.53 178.988C349.239 180.648 352.605 181.32 355.891 180.857L463.056 165.622C466.341 165.151 469.274 163.584 471.211 161.264C473.149 158.943 473.933 156.06 473.393 153.245L445.444 8.9968C444.894 6.18323 443.064 3.67125 440.355 2.01155C437.646 0.35186 434.28 -0.320108 430.994 0.142973ZM471.935 153.452C472.412 155.936 471.72 158.481 470.011 160.528C468.301 162.575 465.713 163.958 462.814 164.373L355.649 179.608C352.75 180.017 349.779 179.425 347.389 177.96C344.998 176.495 343.384 174.279 342.899 171.796L314.95 27.5479C314.473 25.0641 315.164 22.5195 316.874 20.4721C318.584 18.4247 321.172 17.0418 324.07 16.6266L431.236 1.39188C434.135 0.982759 437.106 1.57547 439.496 3.03999C441.887 4.50452 443.501 6.72129 443.986 9.20408L471.935 153.452Z" fill="#3F3D56"/>
<path d="M411.811 59.0234L364.812 65.8911C362.414 66.2414 359.957 65.7389 357.981 64.4942C356.005 63.2496 354.671 61.3646 354.273 59.2541C353.875 57.1436 354.446 54.9804 355.86 53.2404C357.273 51.5003 359.414 50.326 361.811 49.9757L408.811 43.1081C411.208 42.7592 413.663 43.2625 415.639 44.5072C417.614 45.7519 418.947 47.6362 419.344 49.7459C419.742 51.8555 419.172 54.0179 417.759 55.7576C416.347 57.4974 414.207 58.672 411.811 59.0234ZM362.051 51.249C360.038 51.5436 358.24 52.5301 357.053 53.9917C355.866 55.4532 355.387 57.27 355.721 59.0426C356.055 60.8151 357.175 62.3983 358.835 63.4438C360.495 64.4893 362.558 64.9116 364.572 64.6179L411.571 57.7502C413.585 57.4556 415.382 56.4691 416.57 55.0075C417.757 53.546 418.236 51.7292 417.902 49.9566C417.568 48.1841 416.448 46.6009 414.788 45.5554C413.128 44.5099 411.065 44.0876 409.051 44.3813L362.051 51.249Z" fill="#CCCCCC"/>
<path d="M417.811 88.0232L370.084 94.8904C368.879 95.0645 367.645 95.0309 366.455 94.7917C365.264 94.5524 364.139 94.112 363.145 93.4958C362.151 92.8796 361.306 92.0995 360.66 91.2002C360.013 90.3009 359.578 89.3 359.378 88.2546C359.177 87.2093 359.217 86.14 359.494 85.1079C359.77 84.0757 360.279 83.101 360.99 82.2393C361.702 81.3776 362.602 80.6459 363.64 80.086C364.677 79.5261 365.832 79.1489 367.038 78.9761L414.764 72.1089C417.198 71.7586 419.693 72.2611 421.7 73.5057C423.707 74.7502 425.062 76.635 425.466 78.7454C425.87 80.8558 425.29 83.0188 423.854 84.7588C422.419 86.4987 420.245 87.6729 417.811 88.0232ZM367.282 80.2492C365.238 80.5442 363.412 81.5307 362.207 82.9921C361.002 84.4534 360.516 86.2698 360.855 88.042C361.194 89.8142 362.331 91.397 364.016 92.4425C365.701 93.488 367.796 93.9105 369.841 93.6172L417.567 86.75C419.611 86.4551 421.436 85.4685 422.641 84.0072C423.846 82.5458 424.333 80.7294 423.993 78.9572C423.654 77.185 422.517 75.6022 420.832 74.5567C419.147 73.5113 417.052 73.0887 415.008 73.382L367.282 80.2492Z" fill="#CCCCCC"/>
<path d="M423.039 116.326L376.043 122.895C374.856 123.062 373.641 123.03 372.469 122.801C371.296 122.572 370.189 122.151 369.21 121.561C368.23 120.972 367.399 120.226 366.762 119.365C366.126 118.505 365.697 117.548 365.5 116.548C365.303 115.548 365.341 114.525 365.614 113.538C365.886 112.55 366.387 111.618 367.088 110.794C367.788 109.969 368.675 109.27 369.696 108.734C370.718 108.198 371.855 107.838 373.043 107.672L420.039 101.103C422.435 100.77 424.89 101.251 426.865 102.442C428.84 103.632 430.173 105.434 430.571 107.452C430.969 109.47 430.398 111.539 428.986 113.203C427.574 114.867 425.434 115.99 423.039 116.326ZM373.283 108.89C372.286 109.029 371.331 109.332 370.473 109.782C369.615 110.232 368.871 110.82 368.282 111.513C367.694 112.205 367.274 112.988 367.045 113.817C366.816 114.646 366.784 115.505 366.949 116.345C367.115 117.185 367.475 117.989 368.01 118.711C368.544 119.434 369.242 120.06 370.065 120.556C370.887 121.051 371.817 121.405 372.801 121.597C373.786 121.79 374.806 121.817 375.803 121.677L422.799 115.108C423.796 114.969 424.751 114.666 425.609 114.216C426.467 113.766 427.212 113.179 427.8 112.486C428.388 111.794 428.809 111.011 429.038 110.181C429.267 109.352 429.299 108.493 429.134 107.653C428.968 106.813 428.608 106.009 428.073 105.287C427.539 104.564 426.84 103.937 426.018 103.442C425.196 102.947 424.265 102.593 423.281 102.401C422.296 102.208 421.276 102.181 420.279 102.321L373.283 108.89Z" fill="#CCCCCC"/>
<path d="M429.041 145.023L381.307 151.891C380.102 152.065 378.869 152.031 377.678 151.791C376.488 151.551 375.364 151.111 374.37 150.494C373.376 149.878 372.532 149.098 371.886 148.199C371.24 147.3 370.804 146.299 370.604 145.254C370.404 144.209 370.443 143.14 370.72 142.108C370.996 141.077 371.505 140.102 372.215 139.24C372.926 138.379 373.826 137.647 374.863 137.087C375.9 136.527 377.055 136.149 378.26 135.976L425.994 129.108C428.428 128.759 430.922 129.262 432.928 130.507C434.934 131.752 436.288 133.636 436.692 135.746C437.096 137.856 436.517 140.018 435.082 141.758C433.648 143.497 431.475 144.672 429.041 145.023ZM378.504 137.249C377.491 137.395 376.522 137.712 375.651 138.182C374.779 138.653 374.024 139.268 373.426 139.991C372.22 141.453 371.733 143.27 372.073 145.043C372.412 146.816 373.55 148.399 375.236 149.445C376.922 150.49 379.018 150.912 381.063 150.618L428.798 143.75C430.842 143.456 432.668 142.469 433.874 141.008C435.08 139.546 435.566 137.729 435.227 135.957C434.888 134.184 433.75 132.601 432.064 131.555C430.379 130.51 428.283 130.088 426.238 130.381L378.504 137.249Z" fill="#CCCCCC"/>
<path d="M446.405 17.2694L316.227 35.991C316.131 36.0051 316.033 36.0026 315.939 35.9838C315.844 35.965 315.755 35.9302 315.676 35.8814C315.597 35.8326 315.529 35.7708 315.478 35.6995C315.427 35.6281 315.392 35.5487 315.376 35.4658C315.36 35.3828 315.363 35.298 315.385 35.2161C315.408 35.1342 315.448 35.0569 315.505 34.9886C315.561 34.9203 315.633 34.8624 315.715 34.8181C315.798 34.7738 315.889 34.7441 315.985 34.7306L446.163 16.009C446.259 15.9949 446.357 15.9974 446.452 16.0162C446.546 16.035 446.636 16.0698 446.715 16.1186C446.794 16.1674 446.861 16.2292 446.912 16.3006C446.963 16.3719 446.998 16.4513 447.014 16.5342C447.03 16.6172 447.027 16.702 447.005 16.7839C446.983 16.8658 446.942 16.9431 446.886 17.0114C446.829 17.0797 446.757 17.1376 446.675 17.1819C446.592 17.2262 446.501 17.2559 446.405 17.2694Z" fill="#3F3D56"/>
<path d="M329.655 28C332.473 28 334.758 25.9853 334.758 23.5C334.758 21.0147 332.473 19 329.655 19C326.836 19 324.552 21.0147 324.552 23.5C324.552 25.9853 326.836 28 329.655 28Z" fill="#F0C991"/>
<path d="M433.13 6.1298L418.299 7.99264C418.103 8.01677 417.902 7.98103 417.74 7.89324C417.578 7.80544 417.469 7.67276 417.437 7.52425C417.404 7.37575 417.451 7.22352 417.566 7.10093C417.682 6.97834 417.857 6.89539 418.053 6.87023L432.884 5.00738C433.08 4.98321 433.281 5.01893 433.443 5.10672C433.605 5.19452 433.714 5.32721 433.746 5.47574C433.779 5.62427 433.732 5.77653 433.617 5.89913C433.501 6.02173 433.326 6.10468 433.13 6.1298Z" fill="#3F3D56"/>
<path d="M433.169 10.5064L419.265 12.9902C419.081 13.0224 418.892 12.9747 418.741 12.8576C418.59 12.7406 418.487 12.5637 418.457 12.3657C418.426 12.1676 418.47 11.9647 418.578 11.8012C418.686 11.6378 418.85 11.5272 419.034 11.4936L432.939 9.00982C433.123 8.97763 433.311 9.02529 433.463 9.14235C433.614 9.25941 433.716 9.43632 433.747 9.63433C433.777 9.83234 433.734 10.0353 433.625 10.1988C433.517 10.3622 433.353 10.4728 433.169 10.5064Z" fill="#3F3D56"/>
<path d="M434.185 14.1299L420.29 15.992C420.198 16.0045 420.105 16.0023 420.014 15.9856C419.924 15.9688 419.839 15.9378 419.763 15.8944C419.688 15.8509 419.624 15.7959 419.575 15.7324C419.526 15.6689 419.492 15.5983 419.477 15.5244C419.462 15.4506 419.465 15.3751 419.486 15.3022C419.507 15.2294 419.546 15.1606 419.6 15.0998C419.654 15.039 419.722 14.9874 419.801 14.948C419.88 14.9086 419.967 14.8821 420.059 14.8701L433.955 13.008C434.046 12.9955 434.14 12.9977 434.23 13.0144C434.32 13.0312 434.406 13.0621 434.481 13.1056C434.557 13.149 434.621 13.2041 434.67 13.2675C434.719 13.331 434.752 13.4017 434.767 13.4755C434.782 13.5494 434.779 13.6249 434.758 13.6978C434.737 13.7707 434.699 13.8395 434.645 13.9003C434.591 13.9611 434.522 14.0127 434.443 14.0521C434.365 14.0915 434.277 14.1179 434.185 14.1299Z" fill="#3F3D56"/>
<path d="M459.936 167.192C460.28 166.253 460.376 165.261 460.216 164.288C460.056 163.314 459.644 162.382 459.009 161.557C458.374 160.732 457.533 160.034 456.543 159.512C455.553 158.991 454.439 158.658 453.28 158.537L415.103 121L406.199 128.867L444.225 164.859C444.114 166.511 444.727 168.14 445.948 169.437C447.169 170.734 448.913 171.61 450.849 171.897C452.786 172.185 454.78 171.865 456.455 170.997C458.13 170.13 459.368 168.776 459.936 167.192Z" fill="#A0616A"/>
<path d="M426.212 128.544L412.075 137.426C411.673 137.679 411.212 137.854 410.724 137.94C410.236 138.025 409.732 138.02 409.247 137.923C408.761 137.826 408.306 137.641 407.911 137.379C407.517 137.117 407.193 136.786 406.961 136.407L398.837 123.124C397.345 121.347 396.733 119.134 397.135 116.97C397.538 114.806 398.922 112.868 400.984 111.58C403.047 110.292 405.619 109.76 408.137 110.1C410.655 110.44 412.914 111.625 414.417 113.395L426.635 124.045C426.985 124.35 427.254 124.717 427.424 125.119C427.594 125.522 427.662 125.951 427.621 126.378C427.581 126.805 427.435 127.219 427.191 127.593C426.948 127.967 426.614 128.291 426.212 128.544Z" fill="#F0C991"/>
<path d="M399.566 103C409.43 103 417.426 96.0604 417.426 87.5C417.426 78.9396 409.43 72 399.566 72C389.702 72 381.705 78.9396 381.705 87.5C381.705 96.0604 389.702 103 399.566 103Z" fill="#A0616A"/>
<path d="M407.266 158C407.081 158 406.895 157.987 406.712 157.96L375.267 153.345C374.51 153.234 373.82 152.896 373.32 152.388C372.82 151.88 372.539 151.235 372.529 150.566C372.433 144.293 372.971 128.459 380.019 116.925C382.223 113.32 385.854 110.536 390.236 109.09C394.619 107.645 399.454 107.636 403.843 109.066C408.232 110.497 411.875 113.268 414.096 116.865C416.317 120.463 416.964 124.641 415.916 128.623C413.557 137.482 411.754 146.447 410.515 155.477C410.42 156.171 410.037 156.811 409.439 157.276C408.84 157.74 408.068 157.998 407.266 158Z" fill="#2F2E41"/>
<path d="M340.907 107.115C340.998 107.456 341.057 107.802 341.084 108.151L372.881 123.801L380.61 120.005L388.85 129.208L375.933 137.062C374.889 137.697 373.633 138.025 372.352 137.999C371.071 137.972 369.834 137.591 368.828 136.914L336.04 114.846C334.56 115.313 332.948 115.385 331.42 115.052C329.891 114.719 328.517 113.996 327.481 112.981C326.445 111.966 325.796 110.705 325.621 109.367C325.445 108.03 325.751 106.678 326.497 105.492C327.244 104.306 328.396 103.342 329.801 102.729C331.205 102.115 332.795 101.881 334.359 102.057C335.924 102.233 337.388 102.812 338.558 103.715C339.727 104.619 340.547 105.805 340.907 107.115Z" fill="#A0616A"/>
<path d="M373.607 121.395C373.701 120.999 373.893 120.626 374.17 120.3C374.447 119.974 374.803 119.703 375.213 119.506L389.533 112.625C391.436 111.364 393.843 110.802 396.227 111.063C398.611 111.324 400.777 112.386 402.251 114.018C403.725 115.649 404.385 117.716 404.089 119.766C403.792 121.815 402.561 123.68 400.667 124.951L389.249 135.14C388.923 135.43 388.528 135.657 388.091 135.805C387.654 135.953 387.185 136.018 386.716 135.996C386.247 135.974 385.789 135.865 385.373 135.677C384.957 135.489 384.594 135.227 384.307 134.907L374.221 123.674C373.934 123.354 373.73 122.985 373.624 122.592C373.518 122.199 373.512 121.79 373.607 121.395Z" fill="#F0C991"/>
<path d="M358.23 297H348.318L345.984 267.097L358.232 267L358.23 297Z" fill="#A0616A"/>
<path d="M360.272 305L330.675 304.999V304.684C330.675 303.413 330.973 302.153 331.552 300.978C332.131 299.803 332.979 298.736 334.049 297.836C335.119 296.937 336.389 296.224 337.786 295.737C339.184 295.25 340.682 295 342.195 295L360.272 295.001L360.272 305Z" fill="#2F2E41"/>
<path d="M443.961 297H434.971L430.694 267H443.962L443.961 297Z" fill="#A0616A"/>
<path d="M447.024 305L417.427 304.999V304.684C417.427 303.413 417.725 302.153 418.304 300.978C418.883 299.803 419.731 298.736 420.801 297.836C421.871 296.937 423.141 296.224 424.538 295.737C425.936 295.25 427.434 295 428.947 295L447.024 295.001L447.024 305Z" fill="#2F2E41"/>
<path d="M433.423 282C432.73 281.999 432.055 281.814 431.491 281.471C430.926 281.128 430.498 280.644 430.267 280.085L401.282 209.14C401.171 208.868 400.976 208.628 400.718 208.444C400.459 208.259 400.147 208.139 399.815 208.095C399.483 208.051 399.143 208.085 398.832 208.194C398.52 208.303 398.249 208.482 398.048 208.712L369.774 241.006C369.554 241.259 369.399 241.548 369.318 241.855L360.308 276.289C360.147 276.901 359.756 277.45 359.195 277.853C358.634 278.256 357.934 278.491 357.203 278.52L346.412 278.94C345.947 278.96 345.482 278.896 345.047 278.751C344.613 278.606 344.22 278.384 343.893 278.1C343.565 277.817 343.309 277.478 343.143 277.106C342.977 276.734 342.903 276.336 342.926 275.938L344.808 244.508C345.401 234.341 348.459 224.391 353.787 215.291C365.631 195.058 372.484 172.953 373.918 150.352L373.941 150L407.142 154.525L412.126 160.437C414.35 163.104 416.759 165.654 419.34 168.073C425.688 173.969 427.593 181.854 428.074 187.43C428.695 194.283 429.828 201.095 431.464 207.824L447.93 277.138C448.053 277.531 448.077 277.943 447.999 278.345C447.922 278.747 447.745 279.13 447.481 279.469C447.216 279.808 446.871 280.094 446.467 280.309C446.063 280.524 445.609 280.663 445.138 280.715L433.85 281.976C433.708 281.992 433.566 282 433.423 282Z" fill="#2F2E41"/>
<path d="M419.639 76.3781C418.19 72.6377 417.121 68.7984 416.443 64.9024C416.23 62.6342 416.912 60.1936 418.851 58.6286C422.48 55.6998 428.646 57.0947 432.442 59.8666C437.927 63.8726 440.663 70.0289 441.697 76.12C442.73 82.2112 442.276 88.4052 442.524 94.556C442.773 100.707 443.806 107.031 447.488 112.327C451.169 117.623 458.001 121.688 465.207 121.237C468.115 121.103 470.877 120.106 473.013 118.419C474.061 117.569 474.855 116.518 475.328 115.353C475.801 114.188 475.939 112.944 475.731 111.724C479.414 117.342 477.547 124.955 472.054 129.371C466.56 133.787 458.11 135.036 450.888 133.15C443.666 131.265 437.722 126.537 434.171 120.858C430.621 115.179 429.32 108.618 429.508 102.186C429.653 97.2469 430.639 92.2671 429.659 87.3972C428.679 82.5273 425.101 77.5826 419.459 76.4358L419.639 76.3781Z" fill="#2F2E41"/>
<path d="M394.433 83.7293C393.451 86.4628 389.697 88.1484 386.321 87.6861C382.944 87.2238 380.167 84.905 379.141 82.1829C378.213 79.4028 378.593 76.4323 380.203 73.8776C381.09 72.3463 382.33 70.976 383.853 69.8449C385.376 68.7139 387.152 67.8443 389.078 67.2861C391.015 66.7507 393.079 66.6115 395.094 66.88C397.109 67.1485 399.018 67.8169 400.659 68.829C400.833 68.2149 401.201 67.6507 401.724 67.1946C402.248 66.7384 402.907 66.4068 403.635 66.2338C405.101 65.9044 406.648 65.9234 408.101 66.2887C412.29 67.2839 415.919 69.4854 418.344 72.5016C420.738 75.5086 422.322 78.9125 422.986 82.479C424.129 87.8274 423.708 93.6717 420.105 98.1984C416.502 102.725 409.132 105.398 403.152 103.24C402.779 101.651 403.663 100.05 404.685 98.6731C405.706 97.296 406.917 95.9544 407.31 94.3684C407.703 92.7825 406.95 90.8425 405.11 90.3239C403.54 89.8814 401.867 90.5982 400.213 90.6848C399.274 90.734 398.336 90.5764 397.493 90.2278C396.65 89.8792 395.932 89.352 395.41 88.6989C394.889 88.0458 394.583 87.2899 394.522 86.507C394.462 85.7241 394.649 84.9416 395.066 84.2382L394.433 83.7293Z" fill="#2F2E41"/>
<path d="M606.248 305H221.46C221.192 305 220.935 304.947 220.746 304.854C220.557 304.76 220.45 304.633 220.45 304.5C220.45 304.367 220.557 304.24 220.746 304.146C220.935 304.053 221.192 304 221.46 304H606.248C606.516 304 606.773 304.053 606.963 304.146C607.152 304.24 607.258 304.367 607.258 304.5C607.258 304.633 607.152 304.76 606.963 304.854C606.773 304.947 606.516 305 606.248 305Z" fill="#CCCCCC"/>
<path d="M211.783 109.3L243.406 109.3C243.619 109.3 243.826 109.218 243.98 109.069C244.135 108.92 244.224 108.716 244.224 108.5C244.224 108.284 244.135 108.08 243.98 107.931C243.826 107.782 243.619 107.7 243.406 107.7L211.783 107.7C211.569 107.7 211.362 107.782 211.208 107.931C211.054 108.08 210.965 108.284 210.965 108.5C210.965 108.716 211.054 108.92 211.208 109.069C211.362 109.218 211.569 109.3 211.783 109.3Z" fill="#3F3D56" stroke="#3F3D56" stroke-width="0.6"/>
<path d="M236.279 121C236.17 121 236.064 120.972 235.976 120.921C235.888 120.869 235.821 120.797 235.787 120.713C235.752 120.629 235.75 120.539 235.782 120.454C235.814 120.37 235.877 120.296 235.964 120.242L252.479 110.007C252.67 109.889 252.824 109.737 252.93 109.562C253.037 109.387 253.092 109.195 253.092 109C253.092 108.805 253.037 108.612 252.93 108.438C252.824 108.263 252.67 108.111 252.479 107.992L235.964 97.7576C235.854 97.6897 235.783 97.5893 235.764 97.4784C235.746 97.3676 235.783 97.2553 235.866 97.1663C235.949 97.0773 236.073 97.0189 236.209 97.0038C236.345 96.9888 236.483 97.0184 236.593 97.086L253.108 107.321C253.426 107.518 253.683 107.772 253.861 108.063C254.038 108.354 254.13 108.675 254.13 109C254.13 109.325 254.038 109.645 253.861 109.937C253.683 110.228 253.426 110.482 253.108 110.679L236.593 120.914C236.502 120.97 236.392 121 236.279 121Z" fill="#3F3D56"/>
</g>
<defs>
<clipPath id="clip0_159_171">
<rect width="644" height="306" fill="white"/>
</clipPath>
</defs>
</svg>
