<svg width="1430" height="613" viewBox="0 0 1430 613" fill="none" xmlns="http://www.w3.org/2000/svg">
<path d="M1323.34 588.319C1283.16 613.627 1231.08 614.898 1180.75 611.789C1173.72 611.355 1166.74 610.846 1159.83 610.298C1159.79 610.288 1159.73 610.291 1159.69 610.282C1159.36 610.254 1159.02 610.227 1158.71 610.21C1157.28 610.093 1155.85 609.977 1154.44 609.859L1154.77 610.417L1155.82 612.145C1155.44 611.567 1155.07 611 1154.69 610.422C1154.58 610.248 1154.46 610.075 1154.35 609.901C1141.31 590.063 1128.37 569.496 1125.07 546.843C1121.66 523.331 1131.25 496.707 1154.92 485.15C1158.02 483.639 1161.31 482.435 1164.72 481.561C1166.13 481.185 1167.57 480.88 1169.02 480.61C1177.9 478.887 1187.14 479.262 1195.8 481.696C1204.45 484.131 1212.21 488.537 1218.27 494.463C1224.34 500.388 1228.48 507.618 1230.29 515.409C1232.1 523.201 1231.5 531.272 1228.56 538.794C1248.62 520.804 1244.88 491.619 1237.96 467.227C1231.02 442.837 1222.63 415.696 1236.73 393.788C1244.57 381.594 1258.36 374.028 1273.84 370.98C1274.31 370.891 1274.79 370.801 1275.26 370.724C1293.7 367.459 1312.87 370.395 1328.94 378.947C1358.53 395.25 1373.73 426.16 1378.67 456.439C1386.61 505.164 1369.03 559.543 1323.34 588.319Z" fill="#F2F2F2"/>
<path d="M1310.37 510.211C1309.2 520.959 1306.25 531.501 1301.6 541.503C1297.32 550.355 1291.55 558.597 1284.48 565.956C1270.04 581.144 1250.94 592.564 1230.2 600.172C1214.34 605.85 1197.73 609.754 1180.75 611.789C1173.72 611.355 1166.74 610.846 1159.83 610.298C1159.79 610.288 1159.73 610.291 1159.69 610.282C1159.36 610.254 1159.02 610.227 1158.71 610.21C1157.28 610.094 1155.85 609.977 1154.44 609.859L1154.77 610.417L1155.82 612.145C1155.44 611.567 1155.07 611 1154.69 610.422C1154.58 610.248 1154.46 610.075 1154.35 609.901C1167.07 598.814 1176.58 585.222 1182.06 570.263C1187.54 555.304 1188.84 539.414 1185.85 523.925C1182.72 508.546 1175.48 494.03 1164.72 481.561C1166.13 481.185 1167.57 480.88 1169.02 480.61C1173.11 485.5 1176.7 490.696 1179.74 496.138C1190.66 515.546 1194.15 537.512 1189.68 558.786C1185.53 578.037 1175.18 595.853 1159.84 610.14C1161.19 610.057 1162.54 609.962 1163.87 609.856C1188.99 607.995 1214.07 603.273 1236.86 593.6C1256.34 585.532 1273.25 573.4 1286.1 558.273C1299.9 541.632 1305.99 521.614 1307.03 501.27C1308.14 479.489 1304.91 457.325 1299.22 436.143C1293.42 414.428 1284.59 393.416 1272.95 373.575C1272.69 373.125 1272.64 372.604 1272.8 372.122C1272.97 371.639 1273.34 371.23 1273.84 370.98C1274.26 370.734 1274.77 370.642 1275.27 370.724C1275.51 370.78 1275.73 370.883 1275.92 371.026C1276.11 371.168 1276.26 371.346 1276.36 371.547C1277.8 373.998 1279.21 376.451 1280.57 378.931C1291.86 399.589 1300.18 421.393 1305.32 443.844C1310.32 465.501 1312.98 488.157 1310.37 510.211Z" fill="white"/>
<path d="M785.7 599.502C806.226 612.43 832.826 613.079 858.538 611.491C862.129 611.269 865.694 611.009 869.226 610.729C869.247 610.724 869.275 610.726 869.296 610.721C869.466 610.707 869.636 610.693 869.799 610.684C870.528 610.625 871.257 610.565 871.979 610.505L871.809 610.79L871.273 611.673C871.466 611.377 871.658 611.088 871.85 610.792C871.907 610.703 871.97 610.615 872.027 610.526C878.687 600.393 885.294 589.887 886.979 578.315C888.721 566.304 883.825 552.704 871.734 546.801C870.149 546.029 868.47 545.414 866.728 544.968C866.005 544.776 865.272 544.62 864.531 544.482C859.996 543.602 855.275 543.793 850.853 545.037C846.431 546.28 842.468 548.531 839.371 551.558C836.274 554.585 834.155 558.278 833.232 562.258C832.308 566.238 832.614 570.361 834.118 574.204C823.867 565.014 825.779 550.105 829.315 537.646C832.858 525.186 837.147 511.322 829.941 500.131C827.901 497.13 825.157 494.54 821.89 492.532C818.623 490.524 814.907 489.143 810.986 488.481C810.744 488.435 810.501 488.389 810.258 488.35C800.839 486.682 791.047 488.182 782.838 492.55C767.722 500.878 759.959 516.668 757.439 532.135C753.379 557.025 762.363 584.802 785.7 599.502Z" fill="#F2F2F2"/>
<path d="M792.327 559.603C792.923 565.093 794.432 570.478 796.805 575.587C798.992 580.109 801.941 584.319 805.552 588.078C813.06 595.761 822.569 601.755 833.278 605.557C841.379 608.457 849.866 610.451 858.538 611.491C862.128 611.269 865.693 611.009 869.225 610.729C869.247 610.724 869.275 610.726 869.296 610.721C869.466 610.707 869.636 610.693 869.799 610.684C870.528 610.625 871.257 610.565 871.979 610.505L871.808 610.79L871.273 611.673C871.465 611.377 871.658 611.088 871.85 610.792C871.907 610.704 871.97 610.615 872.026 610.526C865.525 604.863 860.671 597.92 857.87 590.278C855.07 582.637 854.406 574.52 855.932 566.608C857.53 558.752 861.229 551.337 866.728 544.968C866.005 544.776 865.272 544.62 864.53 544.482C862.441 546.98 860.608 549.634 859.053 552.414C853.474 562.328 851.694 573.549 853.977 584.416C856.099 594.25 861.386 603.35 869.218 610.649C868.532 610.606 867.84 610.557 867.162 610.503C854.257 609.757 841.618 606.942 829.878 602.199C819.927 598.078 811.288 591.881 804.722 584.154C797.672 575.653 794.565 565.428 794.032 555.035C793.621 543.839 794.963 532.646 798.021 521.767C800.987 510.675 805.494 499.941 811.442 489.806C811.575 489.576 811.602 489.31 811.517 489.064C811.432 488.817 811.242 488.608 810.986 488.481C810.772 488.355 810.511 488.308 810.258 488.35C810.134 488.379 810.02 488.431 809.923 488.504C809.825 488.577 809.748 488.668 809.697 488.77C808.963 490.022 808.243 491.275 807.55 492.542C801.781 503.094 797.533 514.233 794.905 525.701C792.108 536.825 791.239 548.253 792.327 559.603Z" fill="white"/>
<path d="M238.407 16.8056H24.713C18.1615 16.8137 11.8811 19.0926 7.24849 23.1428C2.61592 27.1929 0.00926794 32.6837 0 38.4115V331.997C0.00927177 337.725 2.61592 343.215 7.24849 347.266C11.8811 351.316 18.1615 353.595 24.713 353.603H238.407C244.959 353.595 251.239 351.316 255.872 347.266C260.504 343.215 263.111 337.725 263.12 331.997V38.4115C263.111 32.6837 260.504 27.1929 255.872 23.1428C251.239 19.0926 244.959 16.8137 238.407 16.8056ZM260.213 331.997C260.206 337.051 257.906 341.897 253.819 345.47C249.731 349.044 244.188 351.055 238.407 351.061H24.713C18.9319 351.055 13.3897 349.044 9.30188 345.47C5.21406 341.897 2.91444 337.051 2.90741 331.997V38.4115C2.91444 33.3573 5.21406 28.5118 9.30188 24.938C13.3897 21.3641 18.9319 19.3536 24.713 19.3475H238.407C244.188 19.3536 249.731 21.3641 253.819 24.938C257.906 28.5118 260.206 33.3573 260.213 38.4115V331.997Z" fill="#3F3D56"/>
<path d="M696.324 353.603H482.629C476.077 353.596 469.796 351.318 465.163 347.267C460.53 343.217 457.924 337.725 457.917 331.997V38.4115C457.924 32.6832 460.53 27.1914 465.163 23.1409C469.796 19.0904 476.077 16.8121 482.629 16.8056H696.324C702.876 16.8121 709.158 19.0904 713.79 23.1409C718.423 27.1914 721.03 32.6832 721.037 38.4115V331.997C721.03 337.725 718.423 343.217 713.79 347.267C709.158 351.318 702.876 353.596 696.324 353.603ZM482.629 19.3475C476.848 19.3532 471.306 21.3635 467.218 24.9375C463.13 28.5114 460.83 33.3571 460.824 38.4115V331.997C460.83 337.051 463.13 341.897 467.218 345.471C471.306 349.045 476.848 351.055 482.629 351.061H696.324C702.105 351.055 707.648 349.045 711.736 345.471C715.824 341.897 718.123 337.051 718.13 331.997V38.4115C718.123 33.3571 715.824 28.5114 711.736 24.9375C707.648 21.3635 702.105 19.3532 696.324 19.3475H482.629Z" fill="#3F3D56"/>
<path d="M389.593 187.111H300.917C300.531 187.111 300.161 186.977 299.889 186.738C299.616 186.5 299.463 186.177 299.463 185.84C299.463 185.503 299.616 185.179 299.889 184.941C300.161 184.703 300.531 184.569 300.917 184.569H389.593C389.978 184.569 390.348 184.703 390.62 184.941C390.893 185.179 391.046 185.503 391.046 185.84C391.046 186.177 390.893 186.5 390.62 186.738C390.348 186.977 389.978 187.111 389.593 187.111Z" fill="#3F3D56"/>
<path d="M370.695 221.967C370.391 221.967 370.094 221.884 369.847 221.729C369.6 221.574 369.415 221.355 369.317 221.103C369.22 220.851 369.215 220.578 369.304 220.324C369.393 220.07 369.571 219.846 369.813 219.685L416.075 188.872C416.609 188.517 417.042 188.058 417.34 187.532C417.638 187.006 417.793 186.427 417.793 185.84C417.793 185.253 417.638 184.673 417.34 184.147C417.042 183.621 416.609 183.163 416.075 182.807L369.813 151.994C369.507 151.79 369.306 151.488 369.255 151.154C369.204 150.82 369.306 150.482 369.539 150.214C369.773 149.946 370.118 149.77 370.5 149.725C370.882 149.68 371.268 149.769 371.575 149.972L417.837 180.785C418.727 181.378 419.449 182.143 419.946 183.019C420.442 183.896 420.701 184.861 420.701 185.84C420.701 186.818 420.442 187.783 419.946 188.66C419.449 189.537 418.727 190.301 417.837 190.894L371.575 221.707C371.323 221.876 371.013 221.967 370.695 221.967Z" fill="#3F3D56"/>
<path d="M846.055 187.111H757.379C756.994 187.111 756.624 186.977 756.351 186.738C756.079 186.5 755.926 186.177 755.926 185.84C755.926 185.503 756.079 185.179 756.351 184.941C756.624 184.703 756.994 184.569 757.379 184.569H846.055C846.441 184.569 846.811 184.703 847.083 184.941C847.356 185.179 847.509 185.503 847.509 185.84C847.509 186.177 847.356 186.5 847.083 186.738C846.811 186.977 846.441 187.111 846.055 187.111Z" fill="#3F3D56"/>
<path d="M827.159 221.967C826.854 221.967 826.558 221.884 826.311 221.729C826.063 221.574 825.878 221.355 825.781 221.103C825.683 220.851 825.679 220.578 825.768 220.324C825.857 220.07 826.035 219.846 826.277 219.685L872.539 188.872C873.073 188.517 873.506 188.058 873.804 187.532C874.102 187.006 874.257 186.427 874.257 185.84C874.257 185.253 874.102 184.673 873.804 184.147C873.506 183.621 873.073 183.163 872.539 182.807L826.277 151.994C825.971 151.79 825.77 151.488 825.718 151.154C825.667 150.82 825.769 150.482 826.003 150.214C826.236 149.946 826.582 149.77 826.963 149.725C827.345 149.68 827.732 149.769 828.039 149.972L874.301 180.785C875.191 181.378 875.912 182.143 876.409 183.019C876.906 183.896 877.164 184.861 877.164 185.84C877.164 186.818 876.906 187.783 876.409 188.66C875.912 189.537 875.191 190.301 874.301 190.894L828.039 221.707C827.786 221.876 827.477 221.967 827.159 221.967Z" fill="#3F3D56"/>
<path d="M615.644 135.638H564.764C561.488 135.635 558.347 134.495 556.031 132.47C553.714 130.445 552.411 127.699 552.408 124.835V81.6231C552.411 78.759 553.714 76.0131 556.031 73.9878C558.347 71.9626 561.488 70.8234 564.764 70.8202H615.644C618.92 70.8234 622.061 71.9626 624.377 73.9878C626.694 76.0131 627.997 78.759 628 81.6231V124.835C627.997 127.699 626.694 130.445 624.377 132.47C622.061 134.495 618.92 135.635 615.644 135.638Z" fill="#F0C991"/>
<path d="M625.093 135.002C624.902 135.003 624.713 134.97 624.537 134.906C624.36 134.842 624.2 134.748 624.065 134.63L554.288 73.6252C554.153 73.5072 554.046 73.3671 553.972 73.2129C553.899 73.0587 553.862 72.8935 553.862 72.7266C553.862 72.5597 553.899 72.3945 553.972 72.2403C554.046 72.0861 554.153 71.946 554.288 71.828C554.423 71.71 554.583 71.6164 554.759 71.5525C554.935 71.4887 555.125 71.4558 555.315 71.4558C555.506 71.4558 555.695 71.4887 555.872 71.5525C556.048 71.6164 556.208 71.71 556.343 71.828L626.121 132.833C626.324 133.011 626.463 133.237 626.519 133.483C626.575 133.73 626.546 133.985 626.436 134.218C626.326 134.45 626.14 134.648 625.901 134.788C625.662 134.928 625.381 135.002 625.093 135.002Z" fill="white"/>
<path d="M555.315 135.002C555.027 135.002 554.746 134.928 554.507 134.788C554.268 134.648 554.082 134.45 553.972 134.218C553.862 133.986 553.833 133.73 553.889 133.484C553.945 133.237 554.084 133.011 554.287 132.833L624.065 71.8282C624.2 71.7102 624.36 71.6165 624.536 71.5527C624.713 71.4888 624.902 71.4559 625.093 71.4559C625.283 71.4559 625.472 71.4888 625.649 71.5527C625.825 71.6165 625.985 71.7101 626.12 71.8281C626.255 71.9461 626.362 72.0862 626.436 72.2404C626.509 72.3946 626.546 72.5598 626.546 72.7267C626.546 72.8936 626.509 73.0589 626.436 73.213C626.362 73.3672 626.255 73.5073 626.12 73.6253L556.343 134.63C556.208 134.748 556.048 134.842 555.871 134.906C555.695 134.97 555.506 135.003 555.315 135.002Z" fill="white"/>
<path d="M636.722 202.362H542.231C537.412 202.362 532.79 200.688 529.382 197.709C525.975 194.729 524.06 190.689 524.06 186.475C524.06 182.262 525.975 178.221 529.382 175.242C532.79 172.262 537.412 170.589 542.231 170.589H636.722C641.541 170.589 646.163 172.262 649.571 175.242C652.979 178.221 654.893 182.262 654.893 186.475C654.893 190.689 652.979 194.729 649.571 197.709C646.163 200.688 641.541 202.362 636.722 202.362ZM542.231 173.13C538.183 173.13 534.301 174.536 531.438 177.039C528.576 179.542 526.967 182.936 526.967 186.475C526.967 190.014 528.576 193.409 531.438 195.911C534.301 198.414 538.183 199.82 542.231 199.82H636.722C640.77 199.82 644.653 198.414 647.515 195.911C650.378 193.409 651.986 190.014 651.986 186.475C651.986 182.936 650.378 179.542 647.515 177.039C644.653 174.536 640.77 173.13 636.722 173.13H542.231Z" fill="#3F3D56"/>
<path d="M636.722 250.657H542.231C537.412 250.657 532.79 248.983 529.382 246.004C525.975 243.025 524.06 238.984 524.06 234.771C524.06 230.557 525.975 226.516 529.382 223.537C532.79 220.558 537.412 218.884 542.231 218.884H636.722C641.541 218.884 646.163 220.558 649.571 223.537C652.979 226.516 654.893 230.557 654.893 234.771C654.893 238.984 652.979 243.025 649.571 246.004C646.163 248.983 641.541 250.657 636.722 250.657ZM542.231 221.426C538.183 221.426 534.301 222.832 531.438 225.334C528.576 227.837 526.967 231.231 526.967 234.771C526.967 238.31 528.576 241.704 531.438 244.207C534.301 246.709 538.183 248.115 542.231 248.115H636.722C640.77 248.115 644.653 246.709 647.515 244.207C650.378 241.704 651.986 238.31 651.986 234.771C651.986 231.231 650.378 227.837 647.515 225.334C644.653 222.832 640.77 221.426 636.722 221.426H542.231Z" fill="#3F3D56"/>
<path d="M636.722 298.953H542.231C537.412 298.953 532.79 297.279 529.382 294.3C525.975 291.32 524.06 287.279 524.06 283.066C524.06 278.853 525.975 274.812 529.382 271.832C532.79 268.853 537.412 267.179 542.231 267.179H636.722C641.541 267.179 646.163 268.853 649.571 271.832C652.979 274.812 654.893 278.853 654.893 283.066C654.893 287.279 652.979 291.32 649.571 294.3C646.163 297.279 641.541 298.953 636.722 298.953ZM542.231 269.721C538.183 269.721 534.301 271.127 531.438 273.63C528.576 276.132 526.967 279.527 526.967 283.066C526.967 286.605 528.576 290 531.438 292.502C534.301 295.005 538.183 296.411 542.231 296.411H636.722C640.77 296.411 644.653 295.005 647.515 292.502C650.378 290 651.986 286.605 651.986 283.066C651.986 279.527 650.378 276.132 647.515 273.63C644.653 271.127 640.77 269.721 636.722 269.721H542.231Z" fill="#3F3D56"/>
<path d="M1135.1 0.293168L924.287 30.8817C917.825 31.8275 912.056 34.9747 908.245 39.6333C904.433 44.2919 902.89 50.0817 903.953 55.7335L958.934 345.357C960.015 351.006 963.615 356.05 968.944 359.382C974.272 362.715 980.895 364.064 987.359 363.134L1198.17 332.545C1204.63 331.6 1210.4 328.453 1214.21 323.794C1218.02 319.135 1219.57 313.346 1218.5 307.694L1163.52 18.07C1162.44 12.4209 1158.84 7.3773 1153.51 4.04494C1148.18 0.712575 1141.56 -0.636615 1135.1 0.293168ZM1215.64 308.11C1216.57 313.097 1215.21 318.206 1211.85 322.317C1208.49 326.428 1203.4 329.204 1197.69 330.038L986.883 360.626C981.179 361.448 975.335 360.258 970.633 357.317C965.931 354.377 962.755 349.926 961.802 344.941L906.822 55.3173C905.882 50.3303 907.243 45.2211 910.606 41.1103C913.97 36.9995 919.061 34.2228 924.763 33.3893L1135.57 2.80075C1141.28 1.9793 1147.12 3.16935 1151.82 6.10985C1156.53 9.05035 1159.7 13.5012 1160.65 18.4862L1215.64 308.11Z" fill="#3F3D56"/>
<path d="M1097.96 119.054L1004.75 132.579C999.992 133.269 995.119 132.279 991.199 129.828C987.279 127.377 984.634 123.665 983.845 119.508C983.056 115.351 984.188 111.091 986.992 107.664C989.795 104.237 994.042 101.924 998.796 101.235L1092.01 87.7091C1096.76 87.022 1101.63 88.0131 1105.55 90.4645C1109.47 92.9159 1112.11 96.627 1112.9 100.782C1113.69 104.937 1112.56 109.195 1109.76 112.622C1106.96 116.048 1102.71 118.362 1097.96 119.054ZM999.272 103.742C995.279 104.322 991.713 106.265 989.359 109.144C987.004 112.022 986.054 115.6 986.717 119.091C987.379 122.582 989.601 125.7 992.893 127.759C996.184 129.818 1000.28 130.65 1004.27 130.072L1097.49 116.546C1101.48 115.966 1105.04 114.023 1107.4 111.145C1109.75 108.266 1110.7 104.688 1110.04 101.197C1109.38 97.706 1107.16 94.5881 1103.87 92.529C1100.57 90.4698 1096.48 89.6381 1092.49 90.2167L999.272 103.742Z" fill="#CCCCCC"/>
<path d="M1108.91 176.728L1015.69 190.253C1013.34 190.596 1010.93 190.53 1008.61 190.059C1006.28 189.587 1004.08 188.72 1002.14 187.506C1000.2 186.293 998.55 184.756 997.287 182.985C996.025 181.214 995.174 179.242 994.783 177.183C994.392 175.125 994.469 173.019 995.009 170.986C995.55 168.953 996.543 167.033 997.933 165.336C999.322 163.639 1001.08 162.198 1003.11 161.095C1005.13 159.992 1007.39 159.249 1009.74 158.909L1102.96 145.383C1107.71 144.693 1112.59 145.683 1116.51 148.134C1120.43 150.585 1123.07 154.298 1123.86 158.454C1124.65 162.611 1123.52 166.871 1120.71 170.298C1117.91 173.725 1113.66 176.038 1108.91 176.728ZM1010.22 161.416C1006.23 161.997 1002.66 163.94 1000.31 166.818C997.956 169.697 997.006 173.274 997.669 176.765C998.331 180.255 1000.55 183.373 1003.84 185.432C1007.13 187.491 1011.23 188.323 1015.22 187.746L1108.43 174.22C1112.43 173.639 1115.99 171.696 1118.35 168.818C1120.7 165.94 1121.65 162.362 1120.99 158.871C1120.32 155.381 1118.1 152.263 1114.81 150.204C1111.52 148.145 1107.43 147.313 1103.44 147.891L1010.22 161.416Z" fill="#CCCCCC"/>
<path d="M1119.86 234.402L1026.64 247.927C1024.29 248.27 1021.88 248.204 1019.55 247.733C1017.23 247.262 1015.03 246.394 1013.09 245.18C1011.15 243.967 1009.5 242.43 1008.24 240.659C1006.97 238.888 1006.12 236.916 1005.73 234.858C1005.34 232.799 1005.42 230.693 1005.96 228.66C1006.5 226.627 1007.49 224.707 1008.88 223.01C1010.27 221.313 1012.03 219.872 1014.06 218.769C1016.08 217.666 1018.34 216.923 1020.69 216.583L1113.91 203.057C1118.66 202.37 1123.53 203.361 1127.45 205.813C1131.37 208.264 1134.01 211.975 1134.8 216.13C1135.59 220.285 1134.46 224.543 1131.66 227.97C1128.85 231.396 1124.61 233.71 1119.86 234.402ZM1021.17 219.09C1019.19 219.377 1017.3 220.001 1015.6 220.928C1013.89 221.854 1012.42 223.065 1011.25 224.49C1010.08 225.916 1009.25 227.528 1008.8 229.235C1008.34 230.943 1008.28 232.711 1008.61 234.44C1008.93 236.169 1009.65 237.825 1010.71 239.313C1011.77 240.8 1013.15 242.091 1014.79 243.11C1016.42 244.13 1018.26 244.858 1020.21 245.255C1022.17 245.651 1024.19 245.707 1026.17 245.42L1119.38 231.894C1121.36 231.608 1123.26 230.984 1124.96 230.057C1126.66 229.131 1128.14 227.92 1129.3 226.495C1130.47 225.069 1131.3 223.457 1131.76 221.749C1132.21 220.042 1132.28 218.273 1131.95 216.543C1131.62 214.814 1130.91 213.158 1129.84 211.671C1128.78 210.183 1127.4 208.892 1125.77 207.873C1124.14 206.853 1122.29 206.125 1120.34 205.729C1118.39 205.333 1116.36 205.277 1114.38 205.565L1021.17 219.09Z" fill="#CCCCCC"/>
<path d="M1130.81 292.076L1037.59 305.601C1035.24 305.943 1032.83 305.876 1030.51 305.404C1028.18 304.932 1025.99 304.064 1024.04 302.85C1022.1 301.636 1020.46 300.1 1019.19 298.329C1017.93 296.559 1017.08 294.588 1016.69 292.53C1016.3 290.472 1016.38 288.367 1016.92 286.334C1017.46 284.302 1018.45 282.383 1019.84 280.686C1021.23 278.989 1022.98 277.548 1025.01 276.445C1027.03 275.342 1029.29 274.598 1031.64 274.257L1124.86 260.731C1129.61 260.044 1134.48 261.035 1138.4 263.486C1142.32 265.938 1144.96 269.649 1145.75 273.804C1146.54 277.959 1145.41 282.217 1142.6 285.644C1139.8 289.07 1135.56 291.384 1130.81 292.076ZM1032.12 276.764C1030.14 277.051 1028.25 277.676 1026.55 278.602C1024.84 279.529 1023.37 280.74 1022.2 282.165C1019.85 285.044 1018.9 288.622 1019.56 292.114C1020.22 295.605 1022.44 298.724 1025.74 300.783C1029.03 302.842 1033.12 303.673 1037.12 303.094L1130.33 289.568C1134.32 288.988 1137.89 287.045 1140.24 284.166C1142.6 281.288 1143.55 277.71 1142.89 274.219C1142.22 270.728 1140 267.61 1136.71 265.551C1133.42 263.492 1129.33 262.66 1125.33 263.239L1032.12 276.764Z" fill="#CCCCCC"/>
<path d="M1165.28 35.0708L908.576 72.3181C908.387 72.346 908.194 72.3411 908.007 72.3037C907.821 72.2663 907.645 72.1971 907.489 72.1C907.333 72.0029 907.201 71.8799 907.099 71.738C906.998 71.5961 906.93 71.4381 906.899 71.2731C906.867 71.1081 906.873 70.9393 906.917 70.7764C906.96 70.6135 907.04 70.4597 907.152 70.3238C907.263 70.1879 907.405 70.0726 907.567 69.9846C907.73 69.8965 907.911 69.8373 908.1 69.8105L1164.8 32.5633C1164.99 32.5353 1165.18 32.5402 1165.37 32.5776C1165.56 32.615 1165.73 32.6843 1165.89 32.7814C1166.04 32.8785 1166.18 33.0015 1166.28 33.1434C1166.38 33.2853 1166.45 33.4432 1166.48 33.6083C1166.51 33.7733 1166.5 33.9421 1166.46 34.105C1166.42 34.2679 1166.34 34.4217 1166.23 34.5575C1166.11 34.6934 1165.97 34.8087 1165.81 34.8968C1165.65 34.9849 1165.47 35.044 1165.28 35.0708Z" fill="#3F3D56"/>
<path d="M936.462 57.3366C942.082 57.3366 946.637 53.3535 946.637 48.44C946.637 43.5266 942.082 39.5435 936.462 39.5435C930.842 39.5435 926.286 43.5266 926.286 48.44C926.286 53.3535 930.842 57.3366 936.462 57.3366Z" fill="#F0C991"/>
<path d="M1139.15 13.8768L1110.47 18.0385C1110.09 18.0925 1109.7 18.0126 1109.39 17.8165C1109.07 17.6203 1108.86 17.3239 1108.8 16.9921C1108.74 16.6604 1108.83 16.3203 1109.05 16.0464C1109.27 15.7725 1109.61 15.5872 1109.99 15.531L1138.67 11.3693C1139.05 11.3153 1139.44 11.3951 1139.75 11.5912C1140.07 11.7873 1140.28 12.0838 1140.34 12.4156C1140.4 12.7475 1140.31 13.0876 1140.09 13.3615C1139.87 13.6354 1139.53 13.8207 1139.15 13.8768Z" fill="#3F3D56"/>
<path d="M1140.58 21.3995L1111.9 25.5612C1111.52 25.6151 1111.13 25.5353 1110.82 25.3391C1110.5 25.143 1110.29 24.8465 1110.23 24.5148C1110.17 24.183 1110.26 23.8429 1110.48 23.5691C1110.7 23.2952 1111.04 23.1098 1111.42 23.0536L1140.1 18.8919C1140.48 18.838 1140.87 18.9179 1141.18 19.114C1141.5 19.3101 1141.71 19.6066 1141.77 19.9383C1141.83 20.2701 1141.74 20.6102 1141.52 20.8841C1141.3 21.1579 1140.96 21.3433 1140.58 21.3995Z" fill="#3F3D56"/>
<path d="M1142.01 28.9222L1113.32 33.0839C1113.14 33.1118 1112.94 33.1069 1112.76 33.0695C1112.57 33.032 1112.39 32.9628 1112.24 32.8657C1112.08 32.7686 1111.95 32.6456 1111.85 32.5037C1111.75 32.3618 1111.68 32.2039 1111.65 32.0389C1111.62 31.8739 1111.62 31.7051 1111.67 31.5423C1111.71 31.3794 1111.79 31.2256 1111.9 31.0897C1112.01 30.9539 1112.15 30.8386 1112.32 30.7505C1112.48 30.6624 1112.66 30.6032 1112.85 30.5764L1141.53 26.4147C1141.72 26.3867 1141.91 26.3916 1142.1 26.429C1142.28 26.4664 1142.46 26.5357 1142.62 26.6328C1142.77 26.7298 1142.9 26.8528 1143.01 26.9947C1143.11 27.1366 1143.18 27.2946 1143.21 27.4596C1143.24 27.6246 1143.23 27.7934 1143.19 27.9563C1143.15 28.1192 1143.07 28.273 1142.95 28.4089C1142.84 28.5448 1142.7 28.6601 1142.54 28.7482C1142.38 28.8363 1142.19 28.8954 1142.01 28.9222Z" fill="#3F3D56"/>
<path d="M186.074 208.081H77.0464C73.7704 208.078 70.6296 206.939 68.3131 204.913C65.9966 202.888 64.6936 200.142 64.6899 197.278V100.687C64.6936 97.8229 65.9966 95.077 68.3131 93.0518C70.6296 91.0265 73.7704 89.8874 77.0464 89.8842H186.074C189.35 89.8874 192.491 91.0265 194.808 93.0518C197.124 95.077 198.427 97.823 198.431 100.687V197.278C198.427 200.142 197.124 202.888 194.808 204.913C192.491 206.939 189.35 208.078 186.074 208.081Z" fill="#F0C991"/>
<path d="M178.079 279.889H83.5878C78.7685 279.889 74.1465 278.215 70.7388 275.236C67.331 272.256 65.4165 268.215 65.4165 264.002C65.4165 259.789 67.331 255.748 70.7388 252.768C74.1465 249.789 78.7685 248.115 83.5878 248.115H178.079C182.898 248.115 187.52 249.789 190.928 252.768C194.335 255.748 196.25 259.789 196.25 264.002C196.25 268.215 194.335 272.256 190.928 275.236C187.52 278.215 182.898 279.889 178.079 279.889ZM83.5878 250.657C79.5396 250.657 75.6571 252.063 72.7946 254.566C69.9321 257.068 68.3239 260.463 68.3239 264.002C68.3239 267.541 69.9321 270.936 72.7946 273.438C75.6571 275.941 79.5396 277.347 83.5878 277.347H178.079C182.127 277.347 186.009 275.941 188.872 273.438C191.734 270.936 193.342 267.541 193.342 264.002C193.342 260.463 191.734 257.068 188.872 254.566C186.009 252.063 182.127 250.657 178.079 250.657H83.5878Z" fill="#3F3D56"/>
<path d="M195.523 206.175C195.332 206.175 195.143 206.142 194.967 206.078C194.79 206.014 194.63 205.92 194.495 205.802L66.5694 93.9602C66.4331 93.8424 66.3247 93.7023 66.2505 93.5477C66.1763 93.3932 66.1378 93.2274 66.1372 93.0598C66.1366 92.8922 66.1739 92.7262 66.247 92.5713C66.3201 92.4163 66.4275 92.2756 66.5631 92.1571C66.6986 92.0386 66.8596 91.9447 67.0369 91.8809C67.2141 91.817 67.404 91.7844 67.5957 91.7849C67.7873 91.7855 67.977 91.8192 68.1537 91.8841C68.3305 91.9489 68.4908 92.0437 68.6255 92.163L196.551 204.005C196.755 204.183 196.893 204.409 196.949 204.656C197.005 204.902 196.976 205.158 196.866 205.39C196.756 205.622 196.57 205.821 196.331 205.96C196.092 206.1 195.811 206.175 195.523 206.175Z" fill="white"/>
<path d="M67.5972 206.175C67.3097 206.175 67.0287 206.1 66.7896 205.96C66.5506 205.821 66.3643 205.622 66.2542 205.39C66.1442 205.158 66.1154 204.902 66.1715 204.656C66.2275 204.409 66.3659 204.183 66.5692 204.005L194.495 92.163C194.63 92.0437 194.79 91.9489 194.967 91.8841C195.144 91.8192 195.333 91.7855 195.525 91.7849C195.717 91.7844 195.907 91.817 196.084 91.8809C196.261 91.9447 196.422 92.0386 196.557 92.1571C196.693 92.2756 196.8 92.4163 196.874 92.5713C196.947 92.7262 196.984 92.8922 196.983 93.0598C196.983 93.2273 196.944 93.3932 196.87 93.5477C196.796 93.7022 196.687 93.8424 196.551 93.9601L68.6252 205.802C68.4903 205.92 68.3301 206.014 68.1537 206.078C67.9773 206.142 67.7881 206.175 67.5972 206.175Z" fill="white"/>
<path d="M1190.66 336.051C1191.33 334.144 1191.52 332.13 1191.21 330.153C1190.9 328.176 1190.09 326.283 1188.85 324.607C1187.61 322.932 1185.96 321.514 1184.03 320.455C1182.09 319.395 1179.92 318.719 1177.65 318.475L1103.03 242.24L1085.62 258.217L1159.95 331.313C1159.74 334.668 1160.93 337.976 1163.32 340.611C1165.71 343.245 1169.11 345.023 1172.9 345.607C1176.69 346.191 1180.58 345.541 1183.86 343.78C1187.13 342.018 1189.55 339.268 1190.66 336.051Z" fill="#A0616A"/>
<path d="M1124.64 258.3L1097.97 275.344C1097.21 275.829 1096.34 276.165 1095.42 276.33C1094.5 276.495 1093.55 276.484 1092.63 276.298C1091.72 276.113 1090.86 275.757 1090.11 275.254C1089.37 274.752 1088.76 274.116 1088.32 273.389L1072.99 247.899C1070.18 244.49 1069.02 240.244 1069.78 236.092C1070.54 231.94 1073.15 228.22 1077.04 225.749C1080.93 223.278 1085.79 222.256 1090.54 222.909C1095.29 223.562 1099.55 225.835 1102.39 229.23L1125.44 249.668C1126.1 250.254 1126.61 250.956 1126.93 251.729C1127.25 252.501 1127.38 253.325 1127.31 254.144C1127.23 254.963 1126.95 255.759 1126.49 256.476C1126.03 257.193 1125.4 257.815 1124.64 258.3Z" fill="#F0C991"/>
<path d="M1073.17 207.368C1092.89 207.368 1108.88 193.392 1108.88 176.153C1108.88 158.913 1092.89 144.937 1073.17 144.937C1053.45 144.937 1037.47 158.913 1037.47 176.153C1037.47 193.392 1053.45 207.368 1073.17 207.368Z" fill="#A0616A"/>
<path d="M1088.68 316.982C1088.31 316.983 1087.94 316.956 1087.58 316.902L1024.93 307.682C1023.42 307.463 1022.05 306.787 1021.05 305.772C1020.05 304.758 1019.49 303.469 1019.47 302.132C1019.28 289.601 1020.36 257.97 1034.4 234.93C1038.79 227.729 1046.02 222.167 1054.75 219.279C1063.48 216.392 1073.12 216.375 1081.86 219.232C1090.6 222.088 1097.86 227.625 1102.29 234.811C1106.71 241.997 1108 250.343 1105.91 258.297C1101.21 275.995 1097.62 293.904 1095.15 311.943C1094.96 313.329 1094.2 314.607 1093.01 315.535C1091.82 316.463 1090.28 316.978 1088.68 316.982Z" fill="#2F2E41"/>
<path d="M957.334 214.201C957.512 214.886 957.629 215.583 957.682 216.285L1020.13 247.781L1035.31 240.142L1051.49 258.662L1026.12 274.469C1024.07 275.746 1021.6 276.408 1019.09 276.354C1016.57 276.301 1014.14 275.535 1012.17 274.172L947.775 229.758C944.869 230.699 941.704 230.844 938.701 230.173C935.699 229.503 933.001 228.049 930.967 226.006C928.932 223.962 927.658 221.425 927.313 218.733C926.968 216.041 927.568 213.32 929.035 210.934C930.501 208.547 932.764 206.607 935.522 205.372C938.28 204.138 941.403 203.666 944.475 204.021C947.547 204.375 950.423 205.539 952.72 207.358C955.017 209.176 956.626 211.563 957.334 214.201Z" fill="#A0616A"/>
<path d="M1020.99 244.633C1021.18 243.828 1021.56 243.067 1022.11 242.404C1022.67 241.74 1023.38 241.189 1024.2 240.788L1052.86 226.779C1056.67 224.21 1061.48 223.066 1066.25 223.598C1071.02 224.129 1075.36 226.293 1078.31 229.614C1081.26 232.935 1082.58 237.144 1081.99 241.316C1081.39 245.489 1078.93 249.285 1075.14 251.873L1052.29 272.616C1051.64 273.208 1050.85 273.67 1049.97 273.971C1049.1 274.272 1048.16 274.404 1047.22 274.359C1046.28 274.314 1045.37 274.093 1044.53 273.71C1043.7 273.328 1042.97 272.793 1042.4 272.142L1022.22 249.273C1021.64 248.622 1021.23 247.871 1021.02 247.07C1020.81 246.27 1020.8 245.438 1020.99 244.633Z" fill="#F0C991"/>
<path d="M990.753 596.943H972.931L968.735 537.038L990.756 536.843L990.753 596.943Z" fill="#A0616A"/>
<path d="M995.298 612.047L937.832 612.045V611.41C937.832 608.842 938.41 606.299 939.535 603.926C940.659 601.554 942.306 599.398 944.383 597.582C946.46 595.766 948.926 594.326 951.64 593.343C954.353 592.361 957.262 591.855 960.199 591.855L995.299 591.856L995.298 612.047Z" fill="#2F2E41"/>
<path d="M1160.84 596.943H1143.01L1134.54 536.843H1160.84L1160.84 596.943Z" fill="#A0616A"/>
<path d="M1165.38 612.047L1107.92 612.045V611.41C1107.92 608.842 1108.49 606.299 1109.62 603.926C1110.74 601.554 1112.39 599.398 1114.47 597.582C1116.54 595.766 1119.01 594.326 1121.72 593.343C1124.44 592.361 1127.35 591.855 1130.28 591.855L1165.38 591.856L1165.38 612.047Z" fill="#2F2E41"/>
<path d="M1140.57 565.777C1139.22 565.775 1137.9 565.405 1136.79 564.719C1135.68 564.034 1134.84 563.065 1134.39 561.947L1077.6 420.077C1077.38 419.533 1077 419.052 1076.49 418.684C1075.98 418.316 1075.37 418.075 1074.72 417.987C1074.07 417.899 1073.4 417.967 1072.79 418.184C1072.18 418.402 1071.65 418.76 1071.26 419.221L1015.86 483.801C1015.43 484.306 1015.12 484.884 1014.96 485.498L997.309 554.356C996.993 555.58 996.226 556.679 995.127 557.485C994.028 558.291 992.656 558.76 991.223 558.818L970.079 559.659C969.167 559.699 968.256 559.57 967.405 559.281C966.554 558.991 965.783 558.547 965.143 557.978C964.5 557.412 964 556.736 963.673 555.991C963.347 555.246 963.203 554.45 963.249 553.654L966.935 490.804C968.099 470.471 974.091 450.574 984.53 432.377C1007.74 391.917 1021.17 347.711 1023.98 302.516L1024.02 301.812L1089.08 310.861L1098.84 322.683C1103.2 328.017 1107.92 333.116 1112.98 337.954C1125.42 349.744 1129.15 365.511 1130.09 376.662C1131.31 390.366 1133.53 403.988 1136.74 417.444L1169 556.054C1169.24 556.841 1169.29 557.664 1169.14 558.468C1168.99 559.272 1168.64 560.039 1168.12 560.716C1167.6 561.393 1166.93 561.966 1166.13 562.396C1165.34 562.826 1164.45 563.103 1163.53 563.208L1141.41 565.73C1141.13 565.762 1140.85 565.778 1140.57 565.777Z" fill="#2F2E41"/>
<path d="M1112.65 154.487C1109.81 146.97 1107.72 139.255 1106.39 131.425C1105.98 126.867 1107.31 121.962 1111.11 118.817C1118.21 112.931 1130.29 115.735 1137.72 121.305C1148.46 129.356 1153.81 141.727 1155.84 153.968C1157.86 166.209 1156.97 178.657 1157.46 191.017C1157.95 203.378 1159.97 216.088 1167.18 226.73C1174.38 237.372 1187.76 245.541 1201.87 244.635C1207.56 244.366 1212.97 242.363 1217.15 238.972C1219.21 237.265 1220.76 235.152 1221.69 232.811C1222.61 230.471 1222.88 227.97 1222.47 225.518C1229.69 236.807 1226.03 252.107 1215.27 260.982C1204.52 269.857 1187.97 272.365 1173.83 268.576C1159.69 264.787 1148.06 255.286 1141.1 243.874C1134.15 232.461 1131.61 219.277 1131.97 206.351C1132.26 196.425 1134.19 186.417 1132.27 176.631C1130.35 166.844 1123.34 156.907 1112.3 154.603L1112.65 154.487Z" fill="#2F2E41"/>
<path d="M1063.04 167.353C1061.16 172.854 1053.95 176.246 1047.47 175.316C1040.99 174.386 1035.66 169.719 1033.69 164.242C1031.91 158.647 1032.64 152.669 1035.73 147.528C1037.43 144.447 1039.81 141.689 1042.74 139.413C1045.66 137.137 1049.07 135.387 1052.76 134.264C1056.48 133.186 1060.44 132.906 1064.31 133.446C1068.18 133.987 1071.84 135.332 1074.99 137.368C1075.33 136.133 1076.03 134.997 1077.04 134.079C1078.04 133.162 1079.31 132.494 1080.7 132.146C1083.52 131.483 1086.48 131.521 1089.27 132.257C1097.31 134.259 1104.28 138.689 1108.93 144.759C1113.53 150.81 1116.57 157.66 1117.84 164.837C1120.03 175.6 1119.23 187.361 1112.31 196.47C1105.4 205.58 1091.25 210.959 1079.78 206.616C1079.06 203.417 1080.76 200.197 1082.72 197.426C1084.68 194.654 1087 191.955 1087.76 188.763C1088.51 185.572 1087.06 181.668 1083.53 180.624C1080.52 179.734 1077.31 181.176 1074.14 181.35C1072.33 181.449 1070.53 181.132 1068.91 180.431C1067.3 179.729 1065.92 178.668 1064.92 177.354C1063.92 176.04 1063.33 174.519 1063.21 172.943C1063.1 171.368 1063.46 169.793 1064.26 168.377L1063.04 167.353Z" fill="#2F2E41"/>
<path d="M1325.51 612.873H771.648C771.262 612.873 770.892 612.739 770.62 612.501C770.347 612.262 770.194 611.939 770.194 611.602C770.194 611.265 770.347 610.942 770.62 610.703C770.892 610.465 771.262 610.331 771.648 610.331H1325.51C1325.89 610.331 1326.26 610.465 1326.54 610.703C1326.81 610.942 1326.96 611.265 1326.96 611.602C1326.96 611.939 1326.81 612.262 1326.54 612.501C1326.26 612.739 1325.89 612.873 1325.51 612.873Z" fill="#CCCCCC"/>
</svg>
